<svg width="522" height="183" viewBox="0 0 522 183" fill="none" xmlns="http://www.w3.org/2000/svg">
<path d="M276.387 74.385C270.188 62.1322 256.511 58.5017 250.447 58.218C249.886 58.218 247.483 57.8777 242.362 56.5162C234.277 54.8144 223.497 47.5818 223.497 41.2001C223.497 34.8184 216.423 29.2876 242.362 8.65338C268.302 -11.9808 279.756 11.8442 289.188 3.76072C298.621 -4.32278 305.358 10.1424 312.096 16.9496C318.833 23.7568 322.202 42.6892 305.358 50.1345C288.514 57.5799 300.953 60.7806 296.911 65.0351C292.868 69.2896 284.135 89.7012 276.387 74.385Z" fill="#940000"/>
<path d="M40.576 100.48C39.2107 100.224 37.8453 100.053 36.48 99.968C35.2 99.8827 33.8773 99.584 32.512 99.072C32 98.9013 31.36 98.432 30.592 97.664C29.9093 96.896 29.44 96.2987 29.184 95.872C28.672 95.104 28.288 94.336 28.032 93.568C27.8613 92.8 27.8187 91.9893 27.904 91.136C27.9893 90.88 28.032 90.5387 28.032 90.112C28.032 88.832 28.416 87.5093 29.184 86.144C29.952 84.7787 30.6347 83.4987 31.232 82.304L31.616 81.92C32.4693 80.2133 33.6213 78.2933 35.072 76.16C36.5227 74.0267 37.8027 72.192 38.912 70.656C39.68 69.5467 40.4907 68.48 41.344 67.456C42.2827 66.432 43.0933 65.3653 43.776 64.256L45.824 60.928L46.72 59.776L46.976 59.392C46.976 59.3067 46.976 59.264 46.976 59.264C47.0613 59.1787 47.104 59.136 47.104 59.136C48.384 57.088 49.6213 54.9973 50.816 52.864C52.096 50.7307 52.864 48.4267 53.12 45.952C53.2053 45.696 53.2907 45.44 53.376 45.184C53.4613 44.928 53.5467 44.672 53.632 44.416V43.904C53.632 43.392 53.5893 42.8373 53.504 42.24C53.4187 41.6427 53.4187 41.216 53.504 40.96L53.12 39.296C52.5227 38.8693 52.224 38.528 52.224 38.272C52.3093 37.9307 51.84 37.504 50.816 36.992L50.304 36.48C50.2187 36.736 50.0053 36.864 49.664 36.864C48.9813 36.864 48.5547 36.5653 48.384 35.968L47.488 36.096C47.4027 35.84 46.8907 35.6267 45.952 35.456C45.0987 35.2853 44.5867 35.2427 44.416 35.328L44.032 34.944C43.776 34.944 43.4347 34.944 43.008 34.944C42.6667 34.8587 42.368 34.8587 42.112 34.944C41.856 35.1147 41.6427 35.1573 41.472 35.072C41.3013 34.9867 41.0453 34.944 40.704 34.944C40.448 34.944 40.192 34.9867 39.936 35.072C39.68 35.1573 39.3813 35.2427 39.04 35.328L38.272 35.712C37.504 35.8827 36.5653 36.0107 35.456 36.096C34.432 36.096 33.5787 36.3093 32.896 36.736L32.768 36.48L29.696 37.376L28.8 37.504C28.2027 38.016 27.904 38.3573 27.904 38.528C27.904 38.8693 28.2027 39.0827 28.8 39.168C29.3973 39.168 29.44 39.3387 28.928 39.68C28.2453 40.0213 27.52 40.2773 26.752 40.448C25.984 40.6187 25.2587 40.9173 24.576 41.344C24.2347 41.6 23.8933 41.856 23.552 42.112C23.296 42.2827 22.912 42.3253 22.4 42.24L22.016 42.496L20.352 43.776C19.584 43.6907 18.688 43.9467 17.664 44.544C16.64 45.1413 15.7867 45.6533 15.104 46.08L14.976 45.824C14.8053 45.9093 14.592 46.08 14.336 46.336C14.1653 46.592 13.9947 46.8053 13.824 46.976L9.472 49.536L9.088 49.408L8.576 50.432L8.32 50.304C7.46667 50.9867 6.69867 51.584 6.016 52.096C5.41867 52.608 4.82133 53.376 4.224 54.4L4.352 55.936C4.69333 56.1067 4.992 56.2347 5.248 56.32C5.58933 56.4053 5.93067 56.4907 6.272 56.576L6.528 56.32C8.49067 56.4907 10.3253 56.3627 12.032 55.936L12.16 56.064L13.056 55.552L13.184 55.808L16.512 54.784L16.64 54.912C17.0667 54.5707 17.408 54.4 17.664 54.4C18.0053 54.4 17.7067 54.784 16.768 55.552C15.8293 56.32 14.8053 56.6187 13.696 56.448L13.312 57.088H12.288C12.3733 56.832 12.2453 56.832 11.904 57.088C11.648 57.344 11.52 57.472 11.52 57.472C10.4107 57.8133 9.472 58.0693 8.704 58.24C7.936 58.4107 7.12533 58.496 6.272 58.496C5.93067 58.496 5.504 58.4533 4.992 58.368C4.56533 58.2827 4.096 58.24 3.584 58.24H3.456C3.28533 58.24 3.072 58.2827 2.816 58.368C2.64533 58.4533 2.432 58.4533 2.176 58.368C0.725333 57.6 0 56.576 0 55.296C0 53.8453 0.554667 52.352 1.664 50.816C2.77333 49.28 3.968 48 5.248 46.976C6.528 45.952 7.424 45.4827 7.936 45.568L8.064 45.056L9.216 44.544L9.728 43.904L9.856 44.16L12.288 42.112L12.416 42.24L14.976 40.832L15.104 41.088C15.2747 40.9173 15.4453 40.7467 15.616 40.576C15.872 40.4053 15.9573 40.5333 15.872 40.96L16.768 40.064L16.896 40.192C17.8347 39.2533 18.5173 38.784 18.944 38.784C19.456 38.784 20.2667 38.5707 21.376 38.144C22.2293 37.8027 23.0827 37.4187 23.936 36.992C24.8747 36.48 25.7707 36.1813 26.624 36.096C27.136 35.9253 27.5627 35.7973 27.904 35.712C28.2453 35.6267 28.6293 35.4987 29.056 35.328L29.184 35.584C29.44 35.4133 29.9093 35.2 30.592 34.944C31.36 34.688 32.0853 34.4747 32.768 34.304C33.536 34.048 34.0053 34.0053 34.176 34.176C34.3467 34.432 34.5173 34.56 34.688 34.56C35.0293 34.56 35.328 34.432 35.584 34.176C35.9253 33.92 36.224 33.7493 36.48 33.664C36.9067 33.5787 37.2907 33.536 37.632 33.536C38.0587 33.4507 38.4427 33.4507 38.784 33.536C38.8693 33.536 39.04 33.4933 39.296 33.408C39.4667 33.3227 39.7653 33.28 40.192 33.28C40.7893 33.28 41.472 33.3653 42.24 33.536C43.008 33.7067 43.5627 33.792 43.904 33.792H44.16C44.416 33.792 44.7147 33.7493 45.056 33.664C45.4827 33.4933 45.7387 33.4507 45.824 33.536C46.336 33.792 46.8907 34.0053 47.488 34.176C48.0853 34.2613 48.64 34.432 49.152 34.688C49.5787 35.0293 50.048 35.1573 50.56 35.072C51.1573 34.9867 51.4987 34.9867 51.584 35.072C53.0347 36.096 54.272 36.864 55.296 37.376C56.4053 37.888 57.3013 39.0827 57.984 40.96C58.496 42.24 58.752 43.52 58.752 44.8C58.752 45.3973 58.6667 45.9947 58.496 46.592C58.4107 47.1893 58.2827 47.8293 58.112 48.512C57.856 49.1947 57.6 49.8773 57.344 50.56C57.1733 51.1573 57.0027 51.7973 56.832 52.48C56.7467 52.8213 56.32 53.6747 55.552 55.04C54.8693 56.4053 54.144 57.7707 53.376 59.136C52.608 60.416 52.0533 61.2267 51.712 61.568C51.1147 62.2507 50.4747 63.0187 49.792 63.872C49.1947 64.7253 48.64 65.5787 48.128 66.432C47.36 67.5413 46.592 68.608 45.824 69.632C45.056 70.5707 44.2453 71.5947 43.392 72.704C42.4533 73.8987 41.5573 75.1787 40.704 76.544C39.8507 77.9093 38.9973 79.2747 38.144 80.64C37.9733 80.9813 37.8027 81.3653 37.632 81.792C37.5467 82.1333 37.3333 82.4747 36.992 82.816H36.864C36.6933 82.816 36.48 82.9867 36.224 83.328C36.0533 83.584 35.9253 83.7973 35.84 83.968C35.9253 84.3093 35.7547 84.9493 35.328 85.888C34.9867 86.8267 34.6027 87.808 34.176 88.832C33.7493 89.7707 33.4507 90.4107 33.28 90.752C33.024 91.264 32.896 91.6053 32.896 91.776C32.9813 91.9467 32.9813 92.2453 32.896 92.672C32.8107 94.464 33.4507 95.744 34.816 96.512C36.2667 97.3653 37.7173 98.0053 39.168 98.432C39.5093 98.5173 39.808 98.56 40.064 98.56C40.4053 98.6453 40.7467 98.688 41.088 98.688C42.4533 98.688 43.8187 98.4747 45.184 98.048C46.5493 97.6213 47.7013 97.1947 48.64 96.768C49.664 96.4267 50.2613 96.2987 50.432 96.384L50.816 95.872C51.2427 95.872 51.584 95.7867 51.84 95.616C52.1813 95.4453 52.5227 95.3173 52.864 95.232C53.0347 95.0613 53.248 94.976 53.504 94.976C53.6747 94.976 53.76 94.976 53.76 94.976L54.656 94.464L54.528 94.336C54.528 94.1653 54.7413 94.0373 55.168 93.952C55.5947 93.7813 55.8507 93.696 55.936 93.696V93.44L57.216 92.672C57.3013 92.5867 57.3867 92.5867 57.472 92.672C57.5573 92.672 57.6427 92.6293 57.728 92.544C58.1547 92.3733 58.496 92.0747 58.752 91.648C59.008 91.2213 59.3493 90.9653 59.776 90.88C60.7147 90.4533 61.824 89.6853 63.104 88.576C64.4693 87.3813 65.7493 86.144 66.944 84.864C68.224 83.584 69.2053 82.56 69.888 81.792C70.144 81.536 70.3573 81.2373 70.528 80.896C70.784 80.5547 71.04 80.2987 71.296 80.128L79.104 72.064C79.36 71.808 79.616 71.552 79.872 71.296C80.128 70.9547 80.2987 70.6133 80.384 70.272C80.384 70.272 80.6827 69.9733 81.28 69.376C81.8773 68.6933 82.5173 68.0107 83.2 67.328C83.8827 66.56 84.3093 66.048 84.48 65.792C84.6507 65.4507 84.9067 64.9387 85.248 64.256C85.5893 63.488 85.76 62.9333 85.76 62.592C85.76 62.4213 85.632 62.2507 85.376 62.08C85.12 61.824 84.992 61.5253 84.992 61.184C84.992 60.5867 84.9067 60.032 84.736 59.52C84.5653 58.9227 84.48 58.4107 84.48 57.984C84.5653 57.3013 84.7787 56.5333 85.12 55.68C85.4613 54.8267 85.9307 54.2293 86.528 53.888C86.8693 53.7173 87.1253 53.632 87.296 53.632L87.68 53.76C87.8507 53.5893 87.8933 53.4187 87.808 53.248C87.808 53.0773 87.8507 52.9067 87.936 52.736V52.48L87.808 51.968C87.7227 51.6267 87.68 50.9867 87.68 50.048C87.68 49.024 87.68 48.0853 87.68 47.232C87.68 46.2933 87.6373 45.7813 87.552 45.696V45.056C87.7227 45.1413 87.8933 45.0987 88.064 44.928C88.32 44.7573 88.4907 44.672 88.576 44.672C88.832 44.672 88.96 44.8427 88.96 45.184C89.1307 45.5253 89.1733 45.8667 89.088 46.208C89.0027 46.5493 88.96 46.8907 88.96 47.232C88.96 47.5733 89.088 47.9147 89.344 48.256C89.6 48.512 89.7707 48.8107 89.856 49.152C89.9413 49.3227 89.9413 49.5787 89.856 49.92C89.856 50.176 89.8987 50.3893 89.984 50.56C90.0693 50.7307 90.1973 50.9013 90.368 51.072C90.5387 51.2427 90.6667 51.4133 90.752 51.584V51.712C90.752 51.8827 90.6667 52.1813 90.496 52.608C90.3253 53.0347 90.2827 53.4187 90.368 53.76C90.624 56.1493 91.264 58.5813 92.288 61.056C92.4587 61.312 92.6293 61.5253 92.8 61.696C93.056 61.8667 93.2267 62.08 93.312 62.336V62.72C93.2267 62.8907 93.1413 63.0187 93.056 63.104C93.056 63.1893 93.056 63.3173 93.056 63.488C93.056 64.3413 93.184 65.0667 93.44 65.664C93.7813 66.176 94.1227 66.7307 94.464 67.328V67.584C94.464 68.5227 94.592 69.376 94.848 70.144C95.1893 70.912 95.616 71.68 96.128 72.448C96.2133 72.5333 96.2133 72.7467 96.128 73.088C96.128 73.344 96.1707 73.5573 96.256 73.728C96.4267 74.0693 96.64 74.368 96.896 74.624C97.152 74.88 97.3227 75.136 97.408 75.392C97.664 75.8187 97.792 76.288 97.792 76.8C97.8773 77.312 98.0053 77.7813 98.176 78.208C98.3467 78.5493 98.6027 78.848 98.944 79.104C99.2853 79.2747 99.5413 79.5307 99.712 79.872C100.224 80.7253 100.736 81.7493 101.248 82.944C101.845 84.0533 102.443 84.9493 103.04 85.632V85.76C103.04 86.1013 103.211 86.4427 103.552 86.784C103.893 87.04 104.192 87.3387 104.448 87.68C104.533 87.8507 104.576 88.1067 104.576 88.448C104.661 88.7893 104.789 88.96 104.96 88.96C105.131 88.96 105.173 88.96 105.088 88.96C105.088 88.8747 105.173 88.832 105.344 88.832L106.752 89.984C106.923 90.0693 107.008 90.1973 107.008 90.368C107.008 90.4533 107.051 90.5387 107.136 90.624C107.307 90.7093 107.52 90.752 107.776 90.752C108.032 90.752 108.203 90.9227 108.288 91.264C108.373 91.4347 108.629 91.776 109.056 92.288C109.483 92.8 109.739 93.0987 109.824 93.184C109.909 93.2693 109.995 93.312 110.08 93.312C110.165 93.2267 110.251 93.2267 110.336 93.312C110.933 93.568 111.445 93.9947 111.872 94.592C112.299 95.1893 112.811 95.488 113.408 95.488H113.536C113.877 95.488 114.176 95.4027 114.432 95.232C114.688 95.0613 114.944 94.976 115.2 94.976C115.371 95.0613 115.413 95.1467 115.328 95.232C115.328 95.232 115.413 95.232 115.584 95.232C115.755 95.232 115.797 95.1893 115.712 95.104C115.627 94.9333 115.669 94.8907 115.84 94.976C116.011 94.976 116.139 95.0613 116.224 95.232C116.395 95.3173 116.565 95.4027 116.736 95.488C117.163 95.488 117.461 95.36 117.632 95.104C117.888 94.7627 118.101 94.464 118.272 94.208C118.443 94.0373 118.613 93.9947 118.784 94.08C119.04 94.08 119.253 94.0373 119.424 93.952C119.68 93.696 119.893 93.44 120.064 93.184C120.32 92.928 120.619 92.7573 120.96 92.672C121.216 92.5013 121.429 92.288 121.6 92.032C121.856 91.6053 122.027 91.136 122.112 90.624C122.197 90.112 122.283 89.6853 122.368 89.344C122.795 89.344 123.051 89.216 123.136 88.96C123.563 88.0213 123.904 86.9973 124.16 85.888L124.288 85.376C124.288 85.2053 124.245 85.0773 124.16 84.992C124.16 84.9067 124.16 84.8213 124.16 84.736V84.352C124.16 83.9253 124.203 83.4987 124.288 83.072C124.373 82.56 124.459 82.1333 124.544 81.792C124.715 81.9627 124.8 81.8773 124.8 81.536L125.312 75.904C125.312 75.7333 125.269 75.648 125.184 75.648C125.099 75.5627 125.056 75.4773 125.056 75.392C124.971 74.1973 124.8 73.2587 124.544 72.576C124.288 71.808 124.075 70.8693 123.904 69.76C123.819 69.504 123.819 69.248 123.904 68.992C123.989 68.736 123.989 68.5227 123.904 68.352C123.819 67.4987 123.648 66.9867 123.392 66.816C123.221 66.6453 123.051 66.432 122.88 66.176C122.795 65.92 122.752 65.3653 122.752 64.512C122.752 64.3413 122.667 64.128 122.496 63.872C122.325 63.616 122.197 63.4453 122.112 63.36L121.728 63.744C121.387 63.0613 121.131 62.3787 120.96 61.696C120.789 61.0133 120.491 60.3733 120.064 59.776C119.979 59.6907 119.936 59.4347 119.936 59.008C120.021 58.5813 120.064 58.3253 120.064 58.24C119.893 58.0693 119.68 57.984 119.424 57.984C119.253 57.8987 119.083 57.7707 118.912 57.6C118.827 57.1733 118.656 56.9173 118.4 56.832C118.229 56.7467 118.016 56.5333 117.76 56.192C117.675 56.1067 117.632 55.9787 117.632 55.808C117.717 55.552 117.675 55.296 117.504 55.04C117.419 54.9547 117.248 54.912 116.992 54.912C116.821 54.912 116.693 54.8267 116.608 54.656C116.523 54.4 116.267 54.0587 115.84 53.632C115.499 53.2053 115.115 52.992 114.688 52.992C114.517 53.0773 114.389 53.2053 114.304 53.376C114.219 53.5467 114.133 53.632 114.048 53.632C113.707 53.5467 113.408 53.4187 113.152 53.248C112.981 52.992 112.725 52.864 112.384 52.864C112.213 52.864 112.043 52.9067 111.872 52.992C111.787 53.0773 111.659 53.12 111.488 53.12C111.403 53.12 111.36 52.992 111.36 52.736C111.445 52.48 111.403 52.352 111.232 52.352H111.104C110.933 52.352 110.72 52.3947 110.464 52.48C110.208 52.5653 109.995 52.5653 109.824 52.48C109.995 52.3093 109.909 52.224 109.568 52.224C109.397 52.1387 109.355 52.1387 109.44 52.224C109.525 52.3093 109.483 52.352 109.312 52.352C109.141 52.2667 108.928 52.0533 108.672 51.712C108.501 51.3707 108.288 51.2 108.032 51.2C107.861 51.1147 107.819 51.1147 107.904 51.2C107.989 51.2853 107.947 51.328 107.776 51.328C107.52 51.2427 107.264 51.072 107.008 50.816C106.752 50.56 106.539 50.432 106.368 50.432C106.197 50.432 106.112 50.4747 106.112 50.56C106.197 50.56 106.155 50.6027 105.984 50.688L105.728 50.432C105.387 50.0907 104.875 49.5787 104.192 48.896C103.509 48.2133 103.168 47.616 103.168 47.104C103.253 46.592 103.467 46.0373 103.808 45.44C104.149 44.8427 104.619 44.5867 105.216 44.672C105.387 44.7573 105.557 44.8853 105.728 45.056C105.899 45.1413 106.069 45.2267 106.24 45.312H106.624C106.795 45.4827 106.965 45.7387 107.136 46.08C107.392 46.4213 107.605 46.6347 107.776 46.72C107.776 46.8053 107.819 46.7627 107.904 46.592C108.075 46.4213 108.203 46.336 108.288 46.336C108.459 46.336 108.544 46.3787 108.544 46.464C108.544 46.464 108.587 46.5067 108.672 46.592C108.928 46.592 109.184 46.464 109.44 46.208C109.696 45.8667 109.909 45.6533 110.08 45.568C110.251 45.568 110.293 45.6533 110.208 45.824C110.208 45.9093 110.251 45.9947 110.336 46.08L111.488 45.824L111.744 46.208C112 46.2933 112.256 46.464 112.512 46.72C112.768 46.8907 112.981 46.976 113.152 46.976C113.323 47.0613 113.408 47.104 113.408 47.104C113.493 47.0187 113.579 46.976 113.664 46.976C113.835 46.976 114.261 47.1467 114.944 47.488C115.627 47.8293 116.011 48.0427 116.096 48.128C116.267 48.2133 116.352 48.2987 116.352 48.384C116.352 48.4693 116.395 48.5547 116.48 48.64L116.736 48.384L116.992 48.768L117.376 48.512L118.528 50.688C118.699 50.688 118.869 50.688 119.04 50.688C119.296 50.6027 119.467 50.6027 119.552 50.688C119.637 50.688 119.68 50.7733 119.68 50.944C119.765 51.1147 119.851 51.2427 119.936 51.328C120.107 51.4133 120.533 51.584 121.216 51.84C121.899 52.096 122.283 52.224 122.368 52.224C122.539 52.224 122.581 52.1813 122.496 52.096C122.496 52.0107 122.581 51.968 122.752 51.968C122.923 51.968 123.051 52.0533 123.136 52.224C123.221 52.3947 123.349 52.48 123.52 52.48C123.691 52.48 123.733 52.48 123.648 52.48C123.563 52.3947 123.605 52.352 123.776 52.352C123.947 52.352 124.032 52.3947 124.032 52.48C124.032 52.5653 124.075 52.6933 124.16 52.864C124.16 52.6933 124.331 52.5653 124.672 52.48C125.099 52.3947 125.355 52.3947 125.44 52.48C125.611 52.5653 125.952 52.8213 126.464 53.248C127.061 53.5893 127.275 53.8453 127.104 54.016C127.019 54.1013 126.72 54.272 126.208 54.528C125.696 54.6987 125.355 54.784 125.184 54.784C124.928 54.784 124.672 54.7413 124.416 54.656C124.16 54.5707 123.904 54.528 123.648 54.528C123.477 54.528 123.392 54.5707 123.392 54.656C123.477 54.7413 123.435 54.784 123.264 54.784C123.093 54.784 122.923 54.7413 122.752 54.656C122.581 54.4853 122.368 54.4 122.112 54.4C121.685 54.4 121.387 54.6987 121.216 55.296C121.216 55.3813 121.387 55.808 121.728 56.576C122.155 57.344 122.581 58.1547 123.008 59.008C123.435 59.776 123.691 60.288 123.776 60.544C123.947 61.1413 124.117 61.7387 124.288 62.336C124.544 62.9333 124.715 63.5733 124.8 64.256C124.8 64.4267 124.8 64.6827 124.8 65.024C124.8 65.3653 124.843 65.5787 124.928 65.664C125.013 65.7493 125.099 65.792 125.184 65.792C125.269 65.7067 125.355 65.7493 125.44 65.92C125.44 66.0053 125.44 66.0907 125.44 66.176C125.525 66.2613 125.568 66.3467 125.568 66.432V67.072C125.568 67.1573 125.568 67.328 125.568 67.584C125.653 67.84 125.824 68.1813 126.08 68.608V69.12C126.08 69.9733 126.165 70.8693 126.336 71.808C126.507 72.6613 126.635 73.5573 126.72 74.496C126.805 75.3493 126.805 76.2027 126.72 77.056C126.72 77.824 126.72 78.6347 126.72 79.488C126.72 79.744 126.763 80.0427 126.848 80.384C126.933 80.64 126.976 80.8533 126.976 81.024C126.976 81.28 126.933 81.4933 126.848 81.664C126.763 81.8347 126.72 82.0053 126.72 82.176C126.635 82.5173 126.592 82.9013 126.592 83.328C126.592 83.6693 126.592 84.0107 126.592 84.352C126.507 84.7787 126.336 85.5467 126.08 86.656C125.824 87.68 125.611 88.4053 125.44 88.832C125.355 88.9173 125.227 88.96 125.056 88.96C124.971 88.96 124.928 89.0453 124.928 89.216C124.672 89.8133 124.459 90.4533 124.288 91.136C124.117 91.7333 123.819 92.3307 123.392 92.928C122.88 93.7813 122.24 94.464 121.472 94.976C120.789 95.4027 120.149 95.9573 119.552 96.64C118.869 96.64 118.272 96.896 117.76 97.408C117.248 98.0053 116.651 98.304 115.968 98.304C115.627 98.304 115.413 98.2613 115.328 98.176C115.243 98.0907 115.029 98.176 114.688 98.432L114.432 98.048C114.005 98.4747 113.664 98.688 113.408 98.688C113.152 98.688 112.896 98.6453 112.64 98.56C112.469 98.4747 112.213 98.3893 111.872 98.304L111.36 97.792L110.848 98.048C110.251 97.6213 109.611 97.152 108.928 96.64C108.245 96.2133 107.563 95.8293 106.88 95.488L105.856 95.232C105.685 95.0613 105.472 94.8053 105.216 94.464C104.96 94.1227 104.747 93.952 104.576 93.952C104.491 93.8667 104.405 93.8667 104.32 93.952C104.32 94.0373 104.235 94.0373 104.064 93.952C103.979 93.952 103.765 93.8667 103.424 93.696C103.083 93.44 102.827 93.2693 102.656 93.184C102.656 93.0133 102.613 92.8853 102.528 92.8C102.443 92.6293 102.229 92.4587 101.888 92.288C101.632 92.032 101.419 91.8613 101.248 91.776C100.907 91.4347 100.565 91.0507 100.224 90.624C99.8827 90.112 99.4987 89.728 99.072 89.472C99.072 89.1307 99.0293 88.9173 98.944 88.832C97.8347 87.552 97.024 86.6987 96.512 86.272C96.0853 85.76 95.4027 84.6933 94.464 83.072C94.2933 82.7307 94.08 82.3893 93.824 82.048C93.6533 81.7067 93.44 81.408 93.184 81.152C92.928 80.8107 92.7147 80.4693 92.544 80.128C92.2027 79.4453 91.9467 78.7627 91.776 78.08C91.6053 77.312 91.3493 76.5867 91.008 75.904C90.752 75.392 90.4533 74.9227 90.112 74.496C89.7707 73.984 89.5147 73.472 89.344 72.96C89.2587 72.6187 89.1733 72.32 89.088 72.064C89.0027 71.808 88.8747 71.5093 88.704 71.168L87.68 69.504C87.5093 69.0773 87.3387 68.608 87.168 68.096C86.9973 67.4987 86.8267 66.944 86.656 66.432L83.456 69.76C82.688 70.528 81.8347 71.3387 80.896 72.192C79.9573 72.96 79.232 73.8133 78.72 74.752C78.3787 75.264 77.9947 75.776 77.568 76.288C77.1413 76.8 76.7147 77.2693 76.288 77.696C74.6667 79.5733 72.576 81.7493 70.016 84.224C67.5413 86.6987 64.9387 89.0453 62.208 91.264C59.5627 93.3973 57.1307 95.104 54.912 96.384C54.5707 96.5547 54.1867 96.6827 53.76 96.768C53.4187 96.9387 53.0347 97.152 52.608 97.408C52.4373 97.5787 52.2667 97.6213 52.096 97.536L50.944 98.048C50.944 97.8773 50.688 97.92 50.176 98.176C49.7493 98.432 49.4507 98.6027 49.28 98.688L48.512 98.944L48.384 98.816L46.976 99.456L46.848 99.328C46.6773 99.328 46.464 99.2853 46.208 99.2C46.0373 99.2 45.8667 99.2853 45.696 99.456V99.584C45.2693 99.9253 44.7573 100.096 44.16 100.096C43.5627 100.096 43.0507 100.181 42.624 100.352L43.776 99.072L40.576 100.48Z" fill="#D9D9D9"/>
<path d="M138.68 97.152C136.803 97.152 135.139 96.64 133.688 95.616C132.323 94.5067 131.64 92.6293 131.64 89.984C131.64 89.0453 131.811 87.7227 132.152 86.016C132.493 84.3093 133.048 82.5173 133.816 80.64C134.243 79.616 134.712 78.6347 135.224 77.696C135.821 76.7573 136.376 75.8613 136.888 75.008C136.973 74.9227 137.229 75.008 137.656 75.264C138.168 75.52 138.467 75.6053 138.552 75.52C138.637 75.3493 138.509 75.1787 138.168 75.008C137.912 74.752 137.827 74.5813 137.912 74.496C138.083 74.3253 138.211 74.24 138.296 74.24C138.467 74.1547 138.595 74.0267 138.68 73.856C138.765 73.6853 138.808 73.5147 138.808 73.344C138.808 73.088 138.68 72.8747 138.424 72.704C138.253 72.5333 138.339 72.2773 138.68 71.936C139.107 71.3387 139.576 70.784 140.088 70.272C140.685 69.6747 141.197 69.1627 141.624 68.736C141.795 68.5653 142.008 68.3093 142.264 67.968C142.52 67.5413 142.691 67.2853 142.776 67.2L143.032 66.944C143.117 66.8587 143.203 66.7733 143.288 66.688C143.288 66.6027 143.288 66.56 143.288 66.56C143.373 66.56 143.416 66.5173 143.416 66.432C143.416 66.176 143.16 65.92 142.648 65.664C142.136 65.408 141.88 65.2373 141.88 65.152C141.88 65.0667 141.837 64.9813 141.752 64.896C141.667 64.8107 141.581 64.6827 141.496 64.512C141.581 64.512 141.667 64.4267 141.752 64.256C141.923 64 142.051 63.872 142.136 63.872C142.221 63.872 142.392 63.9573 142.648 64.128C142.904 64.2133 143.075 64.256 143.16 64.256C143.245 64.256 143.288 64.2133 143.288 64.128C143.373 64.0427 143.459 64 143.544 64C143.715 64 144.099 64.128 144.696 64.384C145.293 64.5547 145.635 64.64 145.72 64.64C145.805 64.64 146.061 64.4267 146.488 64C146.915 63.5733 147.171 63.3173 147.256 63.232C147.427 63.0613 147.555 62.8907 147.64 62.72C147.725 62.464 147.939 62.1653 148.28 61.824H148.408C148.493 61.7387 148.536 61.6533 148.536 61.568C148.536 61.4827 148.536 61.44 148.536 61.44C148.707 61.2693 148.835 61.1413 148.92 61.056C149.091 60.8853 149.219 60.7573 149.304 60.672C149.389 60.5867 149.432 60.544 149.432 60.544C149.517 60.544 149.56 60.544 149.56 60.544C149.645 60.3733 149.731 60.2453 149.816 60.16C149.987 60.0747 150.115 59.9893 150.2 59.904L150.456 59.392C150.627 59.2213 151.224 58.8373 152.248 58.24C153.272 57.6427 154.04 57.344 154.552 57.344H155.192C155.192 57.344 155.192 57.3867 155.192 57.472C155.192 57.472 155.235 57.472 155.32 57.472C155.405 57.472 155.491 57.472 155.576 57.472C155.661 57.3867 155.747 57.344 155.832 57.344C155.832 57.344 155.96 57.472 156.216 57.728C156.301 57.8133 156.387 57.856 156.472 57.856C156.557 57.7707 156.643 57.728 156.728 57.728C156.813 57.8133 156.856 57.8987 156.856 57.984C156.856 58.0693 156.899 58.112 156.984 58.112C157.155 58.112 157.197 58.112 157.112 58.112C157.112 58.0267 157.155 57.984 157.24 57.984C157.325 57.984 157.368 58.0693 157.368 58.24C157.368 58.4107 157.411 58.5813 157.496 58.752C157.411 59.008 157.325 59.3067 157.24 59.648C157.24 59.904 157.197 60.1173 157.112 60.288C156.344 61.312 155.747 61.824 155.32 61.824C155.32 61.9093 155.192 62.08 154.936 62.336C154.68 62.336 154.381 62.4213 154.04 62.592C153.699 62.7627 153.357 62.9333 153.016 63.104V63.488C153.016 63.8293 152.888 64 152.632 64C152.461 63.9147 152.291 64.0427 152.12 64.384V64.512C152.291 64.768 152.589 64.896 153.016 64.896L153.912 65.024C154.083 65.024 154.168 64.9813 154.168 64.896C154.253 64.8107 154.339 64.768 154.424 64.768C154.509 64.768 154.552 64.8107 154.552 64.896C154.552 64.896 154.595 64.896 154.68 64.896C154.851 64.896 154.979 64.8533 155.064 64.768C155.149 64.6827 155.235 64.64 155.32 64.64L156.472 64.768C156.216 64.3413 156.088 64 156.088 63.744C156.088 63.3173 156.472 63.0613 157.24 62.976C158.435 62.976 159.459 63.4027 160.312 64.256C160.483 64.1707 160.696 64.1707 160.952 64.256C161.208 64.3413 161.464 64.3413 161.72 64.256L162.36 63.872L162.488 64C162.829 63.8293 163.043 63.744 163.128 63.744C163.299 63.744 163.341 63.7867 163.256 63.872C163.256 63.872 163.299 63.872 163.384 63.872C163.384 63.872 163.469 63.7867 163.64 63.616C163.725 63.616 163.811 63.6587 163.896 63.744C164.067 63.744 164.195 63.7013 164.28 63.616L164.664 63.232H166.2L166.328 63.104C166.499 63.0187 166.712 62.9333 166.968 62.848C167.309 62.6773 167.608 62.592 167.864 62.592C167.864 62.5067 167.949 62.464 168.12 62.464C168.291 62.3787 168.419 62.336 168.504 62.336H168.76C169.187 62.336 169.4 62.464 169.4 62.72C169.4 62.976 169.272 63.1893 169.016 63.36C168.931 63.4453 168.803 63.488 168.632 63.488C168.461 63.4027 168.291 63.4027 168.12 63.488C167.779 63.8293 167.523 64 167.352 64C167.267 64 167.224 64 167.224 64C167.224 63.9147 167.181 63.872 167.096 63.872C167.011 63.872 166.84 64 166.584 64.256L165.688 64.384H165.56C165.389 64.384 165.304 64.4693 165.304 64.64C164.963 64.64 164.621 64.6827 164.28 64.768C163.939 64.768 163.597 64.8107 163.256 64.896L163.128 65.024C163.043 65.024 162.957 65.0667 162.872 65.152C162.787 65.152 162.659 65.152 162.488 65.152C162.317 65.2373 161.848 65.28 161.08 65.28C161.592 65.9627 161.933 66.6027 162.104 67.2C162.275 67.6267 162.403 68.3093 162.488 69.248C162.659 70.1013 162.701 70.7413 162.616 71.168C162.616 71.424 162.531 71.5093 162.36 71.424C162.189 71.2533 162.104 71.2533 162.104 71.424C162.104 71.68 162.189 71.8507 162.36 71.936C162.616 71.936 162.744 72.1493 162.744 72.576C162.744 72.832 162.701 73.1733 162.616 73.6C162.531 73.9413 162.445 74.3253 162.36 74.752C162.275 75.264 162.147 75.8187 161.976 76.416C161.891 76.928 161.677 77.44 161.336 77.952L160.952 78.592V79.36C160.952 80.0427 160.739 80.512 160.312 80.768C159.971 81.024 159.715 81.3227 159.544 81.664C159.373 82.176 159.245 82.5173 159.16 82.688C159.16 82.8587 158.989 83.2 158.648 83.712C157.539 85.4187 156.216 87.04 154.68 88.576C153.144 90.112 151.651 91.52 150.2 92.8C148.92 93.9093 147.171 94.9333 144.952 95.872C142.819 96.7253 140.728 97.152 138.68 97.152ZM139.96 94.848C140.216 94.848 140.728 94.8053 141.496 94.72C142.264 94.5493 143.075 94.1653 143.928 93.568C144.099 93.4827 144.269 93.5253 144.44 93.696C144.611 93.8667 144.781 93.9093 144.952 93.824C145.379 93.6533 145.549 93.5253 145.464 93.44C145.379 93.3547 145.507 93.2693 145.848 93.184H145.976C146.488 93.184 146.701 93.1413 146.616 93.056C146.616 92.8853 146.659 92.672 146.744 92.416C146.744 92.16 146.872 91.9467 147.128 91.776C147.384 91.6053 147.597 91.4773 147.768 91.392C148.707 90.624 149.859 89.344 151.224 87.552C152.589 85.6747 153.955 83.7973 155.32 81.92C155.405 81.7493 155.533 81.7067 155.704 81.792C155.875 81.8773 156.003 81.8773 156.088 81.792C156.173 81.7067 156.216 81.4507 156.216 81.024C156.216 80.768 156.344 80.384 156.6 79.872C156.856 79.2747 157.112 78.8053 157.368 78.464C157.453 78.208 157.624 77.7387 157.88 77.056C158.136 76.288 158.349 75.6053 158.52 75.008C158.776 74.3253 158.819 73.984 158.648 73.984C158.477 73.8987 158.392 73.8133 158.392 73.728C158.392 73.5573 158.648 73.3867 159.16 73.216C159.672 73.0453 159.629 72.9173 159.032 72.832C158.861 72.7467 158.904 72.576 159.16 72.32C159.416 72.064 159.288 71.8933 158.776 71.808C158.349 71.7227 158.179 71.5947 158.264 71.424C158.435 71.2533 158.563 71.1253 158.648 71.04C158.904 70.784 159.032 70.528 159.032 70.272C159.032 69.504 158.819 68.736 158.392 67.968C158.051 67.2 157.667 66.5173 157.24 65.92C156.728 66.2613 156.472 66.432 156.472 66.432C156.387 66.432 156.344 66.432 156.344 66.432C156.344 66.3467 156.259 66.304 156.088 66.304C156.003 66.304 155.96 66.304 155.96 66.304C155.96 66.2187 155.917 66.176 155.832 66.176C155.747 66.176 155.661 66.2187 155.576 66.304C155.491 66.3893 155.448 66.432 155.448 66.432C155.363 66.5173 155.192 66.56 154.936 66.56C154.765 66.56 154.637 66.56 154.552 66.56C154.467 66.56 154.381 66.5173 154.296 66.432C154.296 66.3467 154.253 66.304 154.168 66.304C154.083 66.304 153.955 66.3893 153.784 66.56C153.699 66.7307 153.571 66.816 153.4 66.816C153.315 66.816 153.272 66.7733 153.272 66.688C153.272 66.6027 153.187 66.56 153.016 66.56C152.931 66.56 152.845 66.6027 152.76 66.688C152.76 66.7733 152.717 66.816 152.632 66.816C152.547 66.816 152.376 66.688 152.12 66.432H151.992C151.992 66.944 151.864 67.2 151.608 67.2C151.523 67.2 151.395 67.1147 151.224 66.944C150.285 67.5413 148.707 68.9493 146.488 71.168C144.269 73.3013 142.307 75.776 140.6 78.592C140.259 79.2747 139.832 80.0853 139.32 81.024C138.893 81.9627 138.509 83.0293 138.168 84.224C138.083 84.736 137.827 85.12 137.4 85.376C137.059 85.632 136.803 85.9307 136.632 86.272C136.547 86.6133 136.589 86.8267 136.76 86.912C136.931 86.9973 137.059 87.1253 137.144 87.296C137.144 87.6373 137.059 88.1067 136.888 88.704C136.803 89.3013 136.76 89.856 136.76 90.368C136.76 91.9893 137.059 93.1413 137.656 93.824C138.339 94.5067 139.107 94.848 139.96 94.848Z" fill="#D9D9D9"/>
<path d="M167.14 96.384C166.628 96.384 166.372 96.0853 166.372 95.488C166.372 95.0613 166.5 94.5493 166.756 93.952C167.439 92.5013 168.207 90.4533 169.06 87.808C169.999 85.1627 171.151 82.9013 172.516 81.024C172.943 80.0853 173.583 78.9333 174.436 77.568C175.375 76.1173 176.271 74.4107 177.124 72.448V71.808C177.124 71.552 177.124 71.3387 177.124 71.168C177.209 70.912 177.295 70.656 177.38 70.4C177.721 69.7173 178.02 69.248 178.276 68.992C178.617 68.736 178.959 68.2667 179.3 67.584C179.3 67.4133 179.3 67.2427 179.3 67.072C179.385 66.9013 179.471 66.7307 179.556 66.56C179.385 66.7307 179.343 66.6027 179.428 66.176C179.257 66.176 179.428 65.7493 179.94 64.896C180.281 64.128 180.537 63.7013 180.708 63.616H180.836C181.177 63.104 181.476 62.6773 181.732 62.336C181.988 61.9093 182.073 61.6533 181.988 61.568V61.312C181.988 60.7147 182.159 60.16 182.5 59.648C182.927 59.136 183.311 58.5813 183.652 57.984C183.908 57.6427 184.121 57.472 184.292 57.472C184.463 57.472 184.548 57.5147 184.548 57.6C184.633 57.6 184.719 57.6 184.804 57.6C185.06 57.6 185.188 57.3867 185.188 56.96C185.188 56.7893 185.145 56.576 185.06 56.32C185.06 56.064 185.017 55.7653 184.932 55.424C185.017 54.9973 185.359 54.656 185.956 54.4L186.34 54.272C186.767 52.48 187.279 51.2853 187.876 50.688C188.047 50.5173 188.217 50.3467 188.388 50.176C188.559 50.0053 188.729 49.8347 188.9 49.664C189.924 48.5547 190.692 47.36 191.204 46.08C191.375 45.7387 191.588 45.4827 191.844 45.312C192.185 45.056 192.484 44.7573 192.74 44.416C192.911 44.16 192.953 43.904 192.868 43.648C192.868 43.3067 192.911 43.008 192.996 42.752C193.423 42.0693 193.721 41.6853 193.892 41.6C194.063 41.5147 194.233 41.4293 194.404 41.344C194.66 41.1733 195.087 40.7893 195.684 40.192C195.94 39.7653 196.196 39.3387 196.452 38.912C196.793 38.4853 197.135 38.0587 197.476 37.632C197.988 37.0347 198.543 36.608 199.14 36.352C199.737 36.096 200.335 35.712 200.932 35.2C201.103 35.0293 201.188 34.7733 201.188 34.432C201.188 34.0053 201.273 33.7067 201.444 33.536C204.431 31.1467 207.631 29.1413 211.044 27.52C214.543 25.8987 217.231 25.088 219.108 25.088C219.791 25.088 220.431 25.1307 221.028 25.216C221.711 25.3013 222.351 25.4293 222.948 25.6H223.204C223.631 25.6 224.057 25.6853 224.484 25.856C224.911 26.0267 225.295 26.1973 225.636 26.368C225.977 26.368 226.404 26.4533 226.916 26.624C227.343 26.7947 227.599 27.0507 227.684 27.392C227.769 27.7333 227.684 27.9893 227.428 28.16C227.343 28.2453 227.215 28.2453 227.044 28.16C226.873 28.0747 226.703 28.032 226.532 28.032C226.361 28.032 226.191 27.9467 226.02 27.776C225.849 27.6053 225.679 27.4773 225.508 27.392C225.167 27.392 224.783 27.4347 224.356 27.52C224.015 27.6053 223.631 27.648 223.204 27.648H222.82C222.223 27.648 221.796 27.5627 221.54 27.392C221.369 27.136 220.943 27.0933 220.26 27.264C220.175 27.264 219.919 27.3067 219.492 27.392C219.065 27.4773 218.767 27.52 218.596 27.52C215.524 28.288 212.836 29.568 210.532 31.36C208.228 33.0667 206.18 34.9867 204.388 37.12C202.681 39.2533 201.017 41.3013 199.396 43.264C198.628 44.8 197.86 46.0373 197.092 46.976C197.007 47.0613 196.921 47.0187 196.836 46.848C196.751 46.6773 196.665 46.6773 196.58 46.848C196.324 47.104 196.111 47.5307 195.94 48.128C195.855 48.64 195.684 49.0667 195.428 49.408C195.343 49.4933 195.257 49.4507 195.172 49.28C195.087 49.1093 194.959 49.1093 194.788 49.28C194.703 49.3653 194.575 49.7067 194.404 50.304C194.319 50.816 194.191 51.1573 194.02 51.328C192.996 52.6933 191.887 54.016 190.692 55.296C189.497 56.576 188.303 58.0693 187.108 59.776C185.401 62.4213 183.78 65.024 182.244 67.584C180.708 70.144 179.087 72.96 177.38 76.032C176.783 77.056 176.313 77.9947 175.972 78.848C175.716 79.616 175.417 80.3413 175.076 81.024C174.905 81.28 174.82 81.6213 174.82 82.048C174.82 82.6453 175.161 82.944 175.844 82.944C176.356 82.944 176.868 82.816 177.38 82.56L178.66 82.048C180.708 80.1707 182.841 78.592 185.06 77.312C185.145 77.312 185.188 77.312 185.188 77.312C185.273 77.2267 185.359 77.184 185.444 77.184C185.7 77.184 185.871 77.3547 185.956 77.696C186.041 77.952 185.956 78.1653 185.7 78.336C183.225 79.7013 180.921 81.4507 178.788 83.584C178.703 83.7547 178.617 83.9253 178.532 84.096C178.447 84.2667 178.319 84.4373 178.148 84.608C177.977 84.7787 177.721 85.0773 177.38 85.504C177.124 85.9307 176.996 86.1867 176.996 86.272C176.911 86.528 176.783 86.6133 176.612 86.528C176.527 86.4427 176.271 86.5707 175.844 86.912C175.759 86.9973 175.673 87.168 175.588 87.424C175.588 87.68 175.545 87.8933 175.46 88.064C175.375 88.32 175.204 88.5333 174.948 88.704C174.777 88.7893 174.692 88.8747 174.692 88.96C174.607 89.3013 174.436 89.5147 174.18 89.6C174.009 89.6 173.839 89.6853 173.668 89.856C173.583 89.9413 173.583 90.0693 173.668 90.24C173.753 90.4107 173.711 90.5813 173.54 90.752C173.455 91.008 173.369 91.136 173.284 91.136C173.199 91.0507 173.071 91.0933 172.9 91.264C172.559 91.6053 172.303 91.776 172.132 91.776C171.62 91.9467 171.407 92.0747 171.492 92.16C171.663 92.2453 171.791 92.3307 171.876 92.416C172.047 92.416 171.919 92.544 171.492 92.8C171.321 92.8853 171.151 93.1413 170.98 93.568C170.809 93.9093 170.639 94.1653 170.468 94.336C170.212 94.5067 169.956 94.6347 169.7 94.72C169.529 94.8053 169.316 94.976 169.06 95.232C168.292 96 167.652 96.384 167.14 96.384Z" fill="#D9D9D9"/>
<path d="M186.705 103.936C186.534 103.424 186.449 102.955 186.449 102.528C186.449 102.272 186.534 101.803 186.705 101.12C186.79 100.864 187.046 100.139 187.473 98.944C187.814 97.8347 188.156 96.6827 188.497 95.488C188.924 94.2933 189.222 93.6107 189.393 93.44C189.478 93.44 189.777 92.8 190.289 91.52C190.886 90.1547 191.526 88.7467 192.209 87.296C192.892 85.76 193.404 84.7787 193.745 84.352C194.172 83.4987 194.812 82.3467 195.665 80.896C196.518 79.4453 197.372 77.7813 198.225 75.904V75.392C198.225 74.7947 198.353 74.24 198.609 73.728C198.865 73.0453 199.164 72.6187 199.505 72.448C199.846 72.192 200.145 71.68 200.401 70.912C200.572 70.4853 200.7 70.016 200.785 69.504C200.956 68.9067 201.126 68.3947 201.297 67.968C200.358 68.3093 199.889 68.608 199.889 68.864C199.889 69.2053 199.42 69.5467 198.481 69.888C197.542 70.2293 196.988 70.4427 196.817 70.528L192.337 71.936C192.081 72.0213 191.825 71.8507 191.569 71.424C191.398 70.912 191.313 70.3573 191.313 69.76C191.313 68.9067 191.484 68.224 191.825 67.712C191.825 67.6267 191.91 67.584 192.081 67.584L194.769 66.816C195.366 66.6453 196.134 66.5173 197.073 66.432C198.012 66.2613 198.822 66.0053 199.505 65.664L203.217 65.152V64.512C203.217 64 203.388 63.5307 203.729 63.104C204.156 62.592 204.54 62.0373 204.881 61.44C205.052 61.0987 205.308 60.928 205.649 60.928H206.033C206.204 60.928 206.289 60.7147 206.289 60.288C206.289 60.1173 206.289 59.9467 206.289 59.776C206.289 59.52 206.246 59.2213 206.161 58.88C206.161 58.1973 206.46 57.8133 207.057 57.728H207.441C207.697 56.6187 207.91 55.808 208.081 55.296C208.337 54.784 208.636 54.3573 208.977 54.016L210.001 52.992C211.11 51.8827 211.878 50.7307 212.305 49.536C212.476 49.1947 212.689 48.896 212.945 48.64C213.286 48.384 213.585 48.0853 213.841 47.744C214.012 47.5733 214.054 47.3173 213.969 46.976C213.969 46.6347 214.012 46.3787 214.097 46.208C214.78 45.184 215.59 44.16 216.529 43.136C217.468 42.0267 218.364 41.0453 219.217 40.192C219.473 39.7653 219.772 39.3387 220.113 38.912C220.454 38.4853 220.796 38.0587 221.137 37.632C221.649 37.0347 222.204 36.608 222.801 36.352C223.398 36.096 223.996 35.712 224.593 35.2C224.764 35.0293 224.849 34.7733 224.849 34.432C224.849 34.0053 224.934 33.7067 225.105 33.536C227.068 31.9147 229.158 30.5067 231.377 29.312C233.596 28.032 235.729 27.008 237.777 26.24C239.825 25.472 241.489 25.088 242.769 25.088C243.452 25.088 244.092 25.1307 244.689 25.216C245.286 25.3013 245.926 25.4293 246.609 25.6H246.865C247.292 25.6 247.676 25.6853 248.017 25.856C248.444 26.0267 248.828 26.1973 249.169 26.368C249.596 26.368 250.065 26.4533 250.577 26.624C251.004 26.7947 251.217 27.0507 251.217 27.392C251.302 27.7333 251.26 27.9893 251.089 28.16C251.004 28.2453 250.833 28.2453 250.577 28.16C250.406 28.0747 250.236 28.032 250.065 28.032C249.894 28.032 249.724 27.9467 249.553 27.776C249.382 27.6053 249.212 27.4773 249.041 27.392C248.785 27.392 248.486 27.4347 248.145 27.52C247.804 27.6053 247.462 27.648 247.121 27.648C246.182 27.648 245.585 27.5627 245.329 27.392C245.158 27.136 244.689 27.0933 243.921 27.264C243.75 27.264 243.452 27.3067 243.025 27.392C242.598 27.4773 242.3 27.52 242.129 27.52C239.057 28.288 236.369 29.568 234.065 31.36C231.846 33.0667 229.841 34.9867 228.049 37.12C226.257 39.2533 224.55 41.3013 222.929 43.264C222.588 44.032 222.204 44.7573 221.777 45.44C221.436 46.0373 221.052 46.5493 220.625 46.976C220.54 47.0613 220.454 47.0187 220.369 46.848C220.369 46.6773 220.284 46.6773 220.113 46.848C219.942 47.104 219.772 47.5307 219.601 48.128C219.43 48.64 219.26 49.0667 219.089 49.408C219.004 49.4933 218.876 49.4507 218.705 49.28C218.62 49.1093 218.492 49.1093 218.321 49.28C218.236 49.3653 218.15 49.7067 218.065 50.304C217.98 50.816 217.852 51.1573 217.681 51.328C216.572 52.6933 215.42 54.016 214.225 55.296C213.03 56.576 211.836 58.0693 210.641 59.776L207.697 64.256C208.038 64.256 208.337 64.256 208.593 64.256C208.934 64.256 209.233 64.2133 209.489 64.128C209.745 64.0427 209.83 64.0853 209.745 64.256C209.745 64.3413 209.873 64.3413 210.129 64.256C210.556 64.256 210.854 64.2133 211.025 64.128C211.196 63.9573 211.494 63.8293 211.921 63.744C212.604 63.6587 213.372 63.616 214.225 63.616C215.164 63.5307 215.889 63.488 216.401 63.488C216.742 63.488 217.169 63.488 217.681 63.488C218.193 63.488 218.577 63.5307 218.833 63.616C219.004 63.616 219.046 63.7013 218.961 63.872C218.961 63.9573 219.004 64 219.089 64C219.26 64 219.388 63.9573 219.473 63.872C219.644 63.7867 219.814 63.744 219.985 63.744C220.07 63.6587 220.198 63.6587 220.369 63.744C220.54 63.744 220.668 63.744 220.753 63.744L222.161 64.128C222.588 64.2133 222.844 64.4693 222.929 64.896C223.014 65.3227 222.886 65.536 222.545 65.536C222.289 65.536 222.076 65.4933 221.905 65.408C221.734 65.3227 221.564 65.28 221.393 65.28H218.193C217.596 65.28 217.041 65.28 216.529 65.28C216.017 65.28 215.505 65.3227 214.993 65.408C214.822 65.4933 214.737 65.408 214.737 65.152C214.822 64.896 214.78 64.768 214.609 64.768C214.524 64.768 214.396 64.896 214.225 65.152C214.054 65.3227 213.926 65.408 213.841 65.408L213.201 65.792C212.006 66.048 210.726 66.3467 209.361 66.688C208.081 66.944 206.801 67.2853 205.521 67.712L198.481 79.36C197.884 80.384 197.414 81.3227 197.073 82.176C196.817 82.944 196.518 83.6693 196.177 84.352C196.006 84.608 195.921 84.9493 195.921 85.376C195.921 86.0587 196.305 86.4 197.073 86.4C197.329 86.4 197.798 86.2293 198.481 85.888C198.822 85.7173 199.121 85.5893 199.377 85.504C199.718 85.4187 200.06 85.2907 200.401 85.12C200.486 85.12 200.998 84.8213 201.937 84.224C202.876 83.6267 203.857 82.9013 204.881 82.048L205.905 81.152L207.441 80C207.697 79.744 207.91 79.616 208.081 79.616C208.422 79.616 208.678 79.7867 208.849 80.128C209.02 80.4693 208.977 80.8107 208.721 81.152C208.55 81.408 208.252 81.6213 207.825 81.792C207.398 81.9627 206.972 82.2613 206.545 82.688C205.777 83.2853 204.924 83.9253 203.985 84.608C203.132 85.2053 202.278 85.76 201.425 86.272C201.084 86.528 200.7 86.784 200.273 87.04C199.932 87.296 199.59 87.5947 199.249 87.936L198.097 89.728C198.012 89.8987 197.884 89.984 197.713 89.984C197.628 89.8987 197.372 90.0267 196.945 90.368C196.86 90.4533 196.817 90.624 196.817 90.88C196.817 91.0507 196.732 91.2213 196.561 91.392C196.476 91.648 196.348 91.8613 196.177 92.032C196.006 92.1173 195.921 92.2453 195.921 92.416C195.836 92.672 195.665 92.8427 195.409 92.928C195.238 92.928 195.068 93.0133 194.897 93.184C194.812 93.2693 194.769 93.3973 194.769 93.568C194.854 93.7387 194.854 93.9093 194.769 94.08L193.361 96.768C193.19 97.28 192.934 97.5787 192.593 97.664C192.508 97.7493 192.38 97.7067 192.209 97.536C192.038 97.4507 191.91 97.4933 191.825 97.664C191.825 97.8347 191.868 98.0907 191.953 98.432C192.124 98.7733 192.081 99.0293 191.825 99.2C191.569 99.3707 191.313 99.712 191.057 100.224C190.801 100.821 190.588 101.248 190.417 101.504C190.161 101.845 189.862 102.059 189.521 102.144C189.265 102.229 189.009 102.443 188.753 102.784C188.668 102.869 188.369 103.211 187.857 103.808C187.345 104.491 186.961 104.533 186.705 103.936ZM212.561 103.936C212.39 103.424 212.305 102.955 212.305 102.528C212.305 102.272 212.39 101.803 212.561 101.12C212.646 100.864 212.86 100.139 213.201 98.944C213.628 97.8347 214.012 96.6827 214.353 95.488C214.78 94.2933 215.078 93.6107 215.249 93.44C215.334 93.44 215.633 92.8 216.145 91.52C216.742 90.1547 217.382 88.7467 218.065 87.296C218.748 85.76 219.26 84.7787 219.601 84.352C220.028 83.4987 220.668 82.3467 221.521 80.896C222.374 79.4453 223.228 77.7813 224.081 75.904V75.392C224.081 74.7947 224.209 74.24 224.465 73.728C224.721 73.0453 225.02 72.6187 225.361 72.448C225.702 72.192 226.001 71.68 226.257 70.912C226.428 70.4853 226.556 70.016 226.641 69.504C226.812 68.9067 226.982 68.3947 227.153 67.968C226.214 68.3093 225.745 68.608 225.745 68.864C225.745 69.2053 225.276 69.5467 224.337 69.888C223.398 70.2293 222.844 70.4427 222.673 70.528L218.193 71.936C217.937 72.0213 217.681 71.8507 217.425 71.424C217.254 70.912 217.169 70.3573 217.169 69.76C217.169 68.9067 217.34 68.224 217.681 67.712C217.681 67.6267 217.766 67.584 217.937 67.584L220.625 66.816C221.222 66.6453 221.99 66.5173 222.929 66.432C223.868 66.2613 224.678 66.0053 225.361 65.664L229.073 65.152V64.512C229.073 64 229.244 63.5307 229.585 63.104C230.012 62.592 230.396 62.0373 230.737 61.44C230.908 61.0987 231.164 60.928 231.505 60.928H231.889C232.06 60.928 232.145 60.7147 232.145 60.288C232.145 60.1173 232.145 59.9467 232.145 59.776C232.145 59.52 232.102 59.2213 232.017 58.88C232.017 58.1973 232.316 57.8133 232.913 57.728H233.297C233.553 56.6187 233.766 55.808 233.937 55.296C234.193 54.784 234.492 54.3573 234.833 54.016L235.857 52.992C236.966 51.8827 237.734 50.7307 238.161 49.536C238.332 49.1947 238.545 48.896 238.801 48.64C239.142 48.384 239.441 48.0853 239.697 47.744C239.868 47.5733 239.91 47.3173 239.825 46.976C239.825 46.6347 239.868 46.3787 239.953 46.208C240.636 45.184 241.446 44.16 242.385 43.136C243.324 42.0267 244.22 41.0453 245.073 40.192C245.329 39.7653 245.628 39.3387 245.969 38.912C246.31 38.4853 246.652 38.0587 246.993 37.632C247.505 37.0347 248.06 36.608 248.657 36.352C249.254 36.096 249.852 35.712 250.449 35.2C250.62 35.0293 250.705 34.7733 250.705 34.432C250.705 34.0053 250.79 33.7067 250.961 33.536C252.924 31.9147 255.014 30.5067 257.233 29.312C259.452 28.032 261.585 27.008 263.633 26.24C265.681 25.472 267.345 25.088 268.625 25.088C269.308 25.088 269.948 25.1307 270.545 25.216C271.142 25.3013 271.782 25.4293 272.465 25.6H272.721C273.148 25.6 273.532 25.6853 273.873 25.856C274.3 26.0267 274.684 26.1973 275.025 26.368C275.452 26.368 275.921 26.4533 276.433 26.624C276.86 26.7947 277.073 27.0507 277.073 27.392C277.158 27.7333 277.116 27.9893 276.945 28.16C276.86 28.2453 276.689 28.2453 276.433 28.16C276.262 28.0747 276.092 28.032 275.921 28.032C275.75 28.032 275.58 27.9467 275.409 27.776C275.238 27.6053 275.068 27.4773 274.897 27.392C274.641 27.392 274.342 27.4347 274.001 27.52C273.66 27.6053 273.318 27.648 272.977 27.648C272.038 27.648 271.441 27.5627 271.185 27.392C271.014 27.136 270.545 27.0933 269.777 27.264C269.606 27.264 269.308 27.3067 268.881 27.392C268.454 27.4773 268.156 27.52 267.985 27.52C264.913 28.288 262.225 29.568 259.921 31.36C257.702 33.0667 255.697 34.9867 253.905 37.12C252.113 39.2533 250.406 41.3013 248.785 43.264C248.444 44.032 248.06 44.7573 247.633 45.44C247.292 46.0373 246.908 46.5493 246.481 46.976C246.396 47.0613 246.31 47.0187 246.225 46.848C246.225 46.6773 246.14 46.6773 245.969 46.848C245.798 47.104 245.628 47.5307 245.457 48.128C245.286 48.64 245.116 49.0667 244.945 49.408C244.86 49.4933 244.732 49.4507 244.561 49.28C244.476 49.1093 244.348 49.1093 244.177 49.28C244.092 49.3653 244.006 49.7067 243.921 50.304C243.836 50.816 243.708 51.1573 243.537 51.328C242.428 52.6933 241.276 54.016 240.081 55.296C238.886 56.576 237.692 58.0693 236.497 59.776L233.553 64.256C233.894 64.256 234.193 64.256 234.449 64.256C234.79 64.256 235.089 64.2133 235.345 64.128C235.601 64.0427 235.686 64.0853 235.601 64.256C235.601 64.3413 235.729 64.3413 235.985 64.256C236.412 64.256 236.71 64.2133 236.881 64.128C237.052 63.9573 237.35 63.8293 237.777 63.744C238.46 63.6587 239.228 63.616 240.081 63.616C241.02 63.5307 241.745 63.488 242.257 63.488C242.598 63.488 243.025 63.488 243.537 63.488C244.049 63.488 244.433 63.5307 244.689 63.616C244.86 63.616 244.902 63.7013 244.817 63.872C244.817 63.9573 244.86 64 244.945 64C245.116 64 245.244 63.9573 245.329 63.872C245.5 63.7867 245.67 63.744 245.841 63.744C245.926 63.6587 246.054 63.6587 246.225 63.744C246.396 63.744 246.524 63.744 246.609 63.744L248.017 64.128C248.444 64.2133 248.7 64.4693 248.785 64.896C248.87 65.3227 248.742 65.536 248.401 65.536C248.145 65.536 247.932 65.4933 247.761 65.408C247.59 65.3227 247.42 65.28 247.249 65.28H244.049C243.452 65.28 242.897 65.28 242.385 65.28C241.873 65.28 241.361 65.3227 240.849 65.408C240.678 65.4933 240.593 65.408 240.593 65.152C240.678 64.896 240.636 64.768 240.465 64.768C240.38 64.768 240.252 64.896 240.081 65.152C239.91 65.3227 239.782 65.408 239.697 65.408L239.057 65.792C237.862 66.048 236.582 66.3467 235.217 66.688C233.937 66.944 232.657 67.2853 231.377 67.712L224.337 79.36C223.74 80.384 223.27 81.3227 222.929 82.176C222.673 82.944 222.374 83.6693 222.033 84.352C221.862 84.608 221.777 84.9493 221.777 85.376C221.777 86.0587 222.161 86.4 222.929 86.4C223.185 86.4 223.654 86.2293 224.337 85.888C224.678 85.7173 224.977 85.5893 225.233 85.504C225.574 85.4187 225.916 85.2907 226.257 85.12C226.342 85.12 226.854 84.8213 227.793 84.224C228.732 83.6267 229.713 82.9013 230.737 82.048L231.761 81.152L233.297 80C233.553 79.744 233.766 79.616 233.937 79.616C234.278 79.616 234.534 79.7867 234.705 80.128C234.876 80.4693 234.833 80.8107 234.577 81.152C234.406 81.408 234.108 81.6213 233.681 81.792C233.254 81.9627 232.828 82.2613 232.401 82.688C231.633 83.2853 230.78 83.9253 229.841 84.608C228.988 85.2053 228.134 85.76 227.281 86.272C226.94 86.528 226.556 86.784 226.129 87.04C225.788 87.296 225.446 87.5947 225.105 87.936L223.953 89.728C223.868 89.8987 223.74 89.984 223.569 89.984C223.484 89.8987 223.228 90.0267 222.801 90.368C222.716 90.4533 222.673 90.624 222.673 90.88C222.673 91.0507 222.588 91.2213 222.417 91.392C222.332 91.648 222.204 91.8613 222.033 92.032C221.862 92.1173 221.777 92.2453 221.777 92.416C221.692 92.672 221.521 92.8427 221.265 92.928C221.094 92.928 220.924 93.0133 220.753 93.184C220.668 93.2693 220.625 93.3973 220.625 93.568C220.71 93.7387 220.71 93.9093 220.625 94.08L219.217 96.768C219.046 97.28 218.79 97.5787 218.449 97.664C218.364 97.7493 218.236 97.7067 218.065 97.536C217.894 97.4507 217.766 97.4933 217.681 97.664C217.681 97.8347 217.724 98.0907 217.809 98.432C217.98 98.7733 217.937 99.0293 217.681 99.2C217.425 99.3707 217.169 99.712 216.913 100.224C216.657 100.821 216.444 101.248 216.273 101.504C216.017 101.845 215.718 102.059 215.377 102.144C215.121 102.229 214.865 102.443 214.609 102.784C214.524 102.869 214.225 103.211 213.713 103.808C213.201 104.491 212.817 104.533 212.561 103.936Z" fill="#D9D9D9"/>
<path d="M251.895 96.512C251.81 96.512 251.682 96.4267 251.511 96.256C251.34 96.1707 251.212 96.128 251.127 96.128C250.786 96.2133 250.487 96.256 250.231 96.256C249.975 96.256 249.719 96.256 249.463 96.256C249.378 96.256 249.292 96.2133 249.207 96.128C249.207 96.0427 249.164 96 249.079 96C248.994 96 248.951 96 248.951 96C249.036 96.0853 249.036 96.128 248.951 96.128C248.951 96.128 248.866 96.0853 248.695 96C248.524 95.9147 248.396 95.872 248.311 95.872L248.183 95.744C248.012 95.744 247.884 95.7013 247.799 95.616C247.799 95.5307 247.756 95.488 247.671 95.488L247.543 95.616L247.415 95.488C247.244 95.4027 246.988 95.3173 246.647 95.232C246.391 95.0613 246.178 94.9333 246.007 94.848C245.836 94.848 245.623 94.72 245.367 94.464H245.111C244.94 94.208 244.642 94.0373 244.215 93.952C244.215 93.8667 244.172 93.7813 244.087 93.696H243.959C243.788 93.44 243.66 93.3547 243.575 93.44C243.49 93.2693 243.362 93.1413 243.191 93.056C243.106 92.8853 242.978 92.7573 242.807 92.672C242.807 92.3307 242.722 92.16 242.551 92.16C242.551 91.9893 242.38 91.7333 242.039 91.392C241.783 91.0507 241.612 90.752 241.527 90.496L241.399 90.368C241.058 90.0267 240.802 89.472 240.631 88.704C240.546 88.3627 240.46 88.2347 240.375 88.32C240.375 88.4053 240.332 88.192 240.247 87.68C240.247 87.5947 240.247 87.4667 240.247 87.296C240.332 87.04 240.332 86.8693 240.247 86.784C240.247 86.6987 240.204 86.656 240.119 86.656C240.119 86.5707 240.119 86.4853 240.119 86.4C240.034 86.3147 239.991 86.272 239.991 86.272C240.076 86.1867 240.119 86.144 240.119 86.144C240.119 85.9733 240.076 85.888 239.991 85.888C239.991 85.8027 239.991 85.7173 239.991 85.632V85.376C239.991 84.9493 240.076 84.6507 240.247 84.48C240.247 84.3093 240.29 84.1813 240.375 84.096C240.46 84.0107 240.503 83.9253 240.503 83.84C240.503 83.6693 240.588 83.584 240.759 83.584C240.93 83.584 241.015 83.5413 241.015 83.456C241.015 83.2853 241.058 83.2 241.143 83.2C241.314 83.1147 241.442 83.0293 241.527 82.944C241.527 82.8587 241.57 82.7733 241.655 82.688C241.826 82.6027 241.911 82.5173 241.911 82.432C242.338 82.176 242.807 82.048 243.319 82.048C244.343 82.048 244.855 82.304 244.855 82.816C244.855 82.9867 244.599 83.2853 244.087 83.712C244.002 83.968 243.959 84.1387 243.959 84.224C244.044 84.224 244.002 84.3093 243.831 84.48C243.916 84.736 243.959 85.0773 243.959 85.504C243.874 85.504 243.831 85.632 243.831 85.888C243.916 86.0587 243.959 86.144 243.959 86.144C243.959 86.2293 244.002 86.4853 244.087 86.912C244.258 87.3387 244.386 87.5947 244.471 87.68C244.471 87.68 244.556 87.8933 244.727 88.32C244.898 88.6613 244.983 88.8747 244.983 88.96V89.216C245.154 89.472 245.239 89.6427 245.239 89.728C245.324 89.728 245.666 89.8987 246.263 90.24C246.348 90.3253 246.519 90.368 246.775 90.368C247.202 90.624 247.5 90.8373 247.671 91.008C247.927 91.1787 248.524 91.3493 249.463 91.52C249.804 91.6053 249.932 91.6907 249.847 91.776C249.847 91.776 250.018 91.776 250.359 91.776C250.359 91.776 250.359 91.8187 250.359 91.904C250.359 91.904 250.402 91.904 250.487 91.904C250.658 91.8187 250.828 91.8187 250.999 91.904C251.17 91.904 251.34 91.8613 251.511 91.776H252.023C252.62 91.776 253.26 91.6907 253.943 91.52L255.863 91.008C256.46 90.9227 257.015 90.752 257.527 90.496C258.039 90.24 258.508 89.984 258.935 89.728C259.02 89.728 259.276 89.6 259.703 89.344C260.13 89.0027 260.642 88.6613 261.239 88.32C261.154 88.064 261.111 87.7227 261.111 87.296C261.111 87.04 261.239 86.912 261.495 86.912C261.751 86.8267 261.922 86.6987 262.007 86.528C261.751 86.3573 261.41 86.272 260.983 86.272C260.642 86.272 260.514 86.144 260.599 85.888C260.258 84.0107 259.746 82.304 259.063 80.768C258.466 79.232 257.74 77.5253 256.887 75.648C256.802 75.392 256.631 74.9653 256.375 74.368C256.119 73.7707 255.948 73.3013 255.863 72.96C255.863 72.8747 255.948 72.8747 256.119 72.96C256.29 72.96 256.332 72.9173 256.247 72.832C256.162 72.4053 256.076 71.9787 255.991 71.552C255.991 71.1253 255.948 70.7413 255.863 70.4C255.778 70.2293 255.863 70.1013 256.119 70.016C256.375 69.9307 256.46 69.8027 256.375 69.632C256.29 69.4613 256.119 69.4187 255.863 69.504C255.607 69.5893 255.436 69.5467 255.351 69.376L254.967 67.84C254.967 67.4133 254.882 67.1573 254.711 67.072C254.626 66.9867 254.711 66.816 254.967 66.56C255.138 66.4747 255.223 66.3467 255.223 66.176C255.223 65.92 255.266 65.7493 255.351 65.664C255.778 65.408 255.948 65.1093 255.863 64.768C255.778 64.3413 255.863 63.9573 256.119 63.616C256.375 63.2747 256.588 62.976 256.759 62.72C256.93 62.3787 257.186 62.1653 257.527 62.08C257.783 61.9093 257.868 61.952 257.783 62.208C257.698 62.464 257.698 62.592 257.783 62.592C258.21 62.592 258.38 62.3787 258.295 61.952C258.21 61.5253 258.338 61.1413 258.679 60.8C259.276 60.288 260.172 59.8613 261.367 59.52C262.562 59.1787 263.458 58.9653 264.055 58.88C264.226 58.88 264.354 58.88 264.439 58.88C264.61 58.7947 264.738 58.752 264.823 58.752C265.25 58.752 265.676 58.7947 266.103 58.88C266.615 58.9653 267.084 59.0507 267.511 59.136C267.852 59.2213 268.364 59.5627 269.047 60.16C269.73 60.672 270.242 60.8 270.583 60.544C271.351 59.8613 272.162 59.264 273.015 58.752C273.954 58.24 274.551 58.0267 274.807 58.112C275.49 58.1973 276.087 58.4107 276.599 58.752C277.111 59.008 277.282 59.8613 277.111 61.312C277.026 61.824 276.812 62.2507 276.471 62.592C276.215 62.848 275.959 63.1893 275.703 63.616L274.807 64.896C274.466 65.4933 274.039 66.0907 273.527 66.688C273.1 67.2853 272.716 67.6693 272.375 67.84C272.034 68.0107 271.692 68.3093 271.351 68.736C271.095 69.0773 270.754 69.4187 270.327 69.76C269.9 70.1013 269.431 70.3573 268.919 70.528C268.492 70.6133 268.194 70.6987 268.023 70.784C267.767 70.8693 267.383 70.912 266.871 70.912C266.444 70.8267 266.316 70.656 266.487 70.4C266.658 70.3147 266.7 70.2293 266.615 70.144C266.53 69.9733 266.487 69.8453 266.487 69.76C266.487 69.5893 266.572 69.4613 266.743 69.376C266.999 69.2907 267.17 69.1627 267.255 68.992C267.34 68.9067 267.554 68.608 267.895 68.096C268.322 67.584 268.492 67.2853 268.407 67.2C268.407 66.944 268.492 66.7307 268.663 66.56C268.663 66.3893 268.663 66.2613 268.663 66.176C268.663 66.0053 268.748 65.8773 268.919 65.792C269.26 65.7067 269.431 65.5787 269.431 65.408V63.872C269.431 63.5307 269.388 63.1893 269.303 62.848C269.303 62.5067 269.218 62.208 269.047 61.952C268.364 61.0987 267.255 60.672 265.719 60.672C264.61 60.672 263.543 60.928 262.519 61.44C261.41 61.952 260.471 62.8053 259.703 64C259.106 64.8533 258.807 65.7493 258.807 66.688C258.807 67.3707 258.935 68.0533 259.191 68.736C259.532 69.4187 259.831 70.0587 260.087 70.656C260.343 71.2533 260.684 71.9787 261.111 72.832C261.623 73.6853 262.007 74.368 262.263 74.88C262.69 75.5627 263.159 76.3733 263.671 77.312C264.183 78.1653 264.567 78.976 264.823 79.744C264.908 79.8293 264.823 79.9147 264.567 80C264.396 80 264.354 80.0853 264.439 80.256C264.524 80.4267 264.652 80.512 264.823 80.512C264.994 80.512 265.122 80.5973 265.207 80.768C265.378 81.024 265.378 81.2373 265.207 81.408C265.122 81.5787 265.122 81.8347 265.207 82.176C265.207 82.2613 265.292 82.3467 265.463 82.432C265.634 82.5173 265.719 82.6027 265.719 82.688C266.146 83.7973 266.359 84.6933 266.359 85.376C267.127 84.9493 267.98 84.4373 268.919 83.84C269.858 83.2427 270.37 82.688 270.455 82.176C270.54 82.0053 270.668 81.9627 270.839 82.048C271.095 82.048 271.223 82.1333 271.223 82.304C271.138 82.9013 270.412 83.712 269.047 84.736C267.767 85.76 266.786 86.4853 266.103 86.912C266.188 86.9973 266.146 87.2107 265.975 87.552C265.804 87.8933 265.762 88.1493 265.847 88.32C265.847 88.4053 265.804 88.5333 265.719 88.704C265.634 88.7893 265.548 88.9173 265.463 89.088C265.463 89.4293 265.378 89.6853 265.207 89.856V90.112L264.823 90.368C264.738 90.4533 264.61 90.6667 264.439 91.008C264.354 91.264 264.226 91.4773 264.055 91.648H263.671C263.5 91.8187 263.415 92.032 263.415 92.288C263.244 92.544 262.86 92.8427 262.263 93.184C261.666 93.44 261.282 93.696 261.111 93.952C261.111 93.952 261.068 93.952 260.983 93.952C260.898 93.952 260.77 94.0373 260.599 94.208H260.215C260.13 94.208 260.044 94.2933 259.959 94.464C259.874 94.5493 259.788 94.6347 259.703 94.72C259.447 94.72 259.319 94.8053 259.319 94.976C258.978 94.976 258.722 95.0187 258.551 95.104L257.271 95.36C256.93 95.7013 256.631 95.872 256.375 95.872L256.247 95.744C256.076 95.9147 255.948 96 255.863 96H255.351C255.266 96 255.18 96.0427 255.095 96.128C255.01 96.2133 254.924 96.256 254.839 96.256H254.583C254.498 96.256 254.412 96.256 254.327 96.256C254.327 96.3413 254.242 96.384 254.071 96.384C253.815 96.384 253.431 96.384 252.919 96.384C252.492 96.384 252.151 96.4267 251.895 96.512ZM250.615 95.36C250.615 95.36 250.7 95.36 250.871 95.36C251.127 95.2747 251.298 95.232 251.383 95.232C251.81 95.232 252.194 95.2747 252.535 95.36C252.876 95.36 253.218 95.36 253.559 95.36C253.73 95.36 253.815 95.2747 253.815 95.104H254.071C254.327 94.848 254.455 94.8053 254.455 94.976C254.54 95.1467 254.668 95.1467 254.839 94.976C255.01 94.976 255.095 94.9333 255.095 94.848L255.607 94.592C255.692 94.592 255.735 94.592 255.735 94.592C255.735 94.5067 255.778 94.464 255.863 94.464H256.119C256.29 94.464 256.46 94.3787 256.631 94.208C256.802 94.0373 256.887 93.952 256.887 93.952C256.887 93.952 257.015 93.824 257.271 93.568C257.271 93.568 257.314 93.568 257.399 93.568C257.484 93.4827 257.57 93.44 257.655 93.44C257.826 93.2693 257.996 93.184 258.167 93.184C258.167 93.0987 258.252 93.0133 258.423 92.928C258.594 92.7573 258.679 92.672 258.679 92.672C258.764 92.5867 258.85 92.544 258.935 92.544C259.106 92.4587 259.191 92.3733 259.191 92.288C259.362 92.288 259.703 91.9893 260.215 91.392C260.727 90.7947 261.068 90.0693 261.239 89.216C261.239 89.0453 260.983 89.1733 260.471 89.6C259.959 89.9413 259.703 90.112 259.703 90.112C259.447 90.1973 259.191 90.368 258.935 90.624C258.679 90.7947 258.466 90.88 258.295 90.88C258.21 90.88 258.082 90.9653 257.911 91.136C257.826 91.2213 257.74 91.264 257.655 91.264C257.57 91.264 257.527 91.3067 257.527 91.392C257.527 91.392 257.442 91.3493 257.271 91.264C257.186 91.4347 256.93 91.6053 256.503 91.776C256.076 91.9467 255.778 92.032 255.607 92.032H255.223L255.095 92.16C255.095 92.16 255.052 92.2027 254.967 92.288C254.882 92.288 254.796 92.288 254.711 92.288L253.815 92.416H253.687C253.602 92.416 253.516 92.4587 253.431 92.544C253.09 92.544 252.706 92.5867 252.279 92.672C251.852 92.7573 251.596 92.8 251.511 92.8H251.383C251.383 92.7147 251.34 92.672 251.255 92.672V92.8H250.615C250.359 92.8 250.06 92.7573 249.719 92.672C249.463 92.5013 249.25 92.416 249.079 92.416C248.994 92.416 248.951 92.4587 248.951 92.544C248.951 92.544 248.908 92.544 248.823 92.544H248.567C248.482 92.544 248.439 92.5013 248.439 92.416H247.799C247.799 92.16 247.714 92.1173 247.543 92.288H247.415C247.074 92.288 246.775 92.16 246.519 91.904C246.348 91.648 246.05 91.52 245.623 91.52L245.239 91.136C245.239 91.2213 245.196 91.3067 245.111 91.392C245.111 91.392 245.111 91.4347 245.111 91.52C245.111 91.52 245.154 91.6053 245.239 91.776C245.41 91.8613 245.495 91.9467 245.495 92.032L245.751 92.544L246.263 93.184L246.519 93.44C246.604 93.5253 246.647 93.568 246.647 93.568C246.732 93.568 246.818 93.6533 246.903 93.824C247.074 93.824 247.159 93.952 247.159 94.208C248.61 94.976 249.762 95.36 250.615 95.36Z" fill="#D9D9D9"/>
<path d="M304 105.856C302.891 105.856 301.739 105.6 300.544 105.088C299.264 104.661 298.283 104.405 297.6 104.32C297.088 104.149 296.619 103.765 296.192 103.168C295.765 102.656 295.552 102.4 295.552 102.4C295.808 101.717 296.064 101.419 296.32 101.504C296.491 101.589 296.875 101.589 297.472 101.504C297.557 101.504 297.685 101.461 297.856 101.376C297.941 101.376 298.027 101.376 298.112 101.376C298.368 101.376 298.667 101.376 299.008 101.376C299.264 101.461 299.563 101.504 299.904 101.504C300.501 101.504 300.971 101.376 301.312 101.12C301.995 100.608 302.848 99.8827 303.872 98.944C304.981 98.0053 305.749 97.2373 306.176 96.64C306.347 96.4693 306.432 96.1707 306.432 95.744C306.517 95.3173 306.731 95.1467 307.072 95.232C308.779 93.184 310.357 91.1787 311.808 89.216C313.344 87.168 314.88 85.12 316.416 83.072C316.843 81.8773 317.44 80.7253 318.208 79.616C319.061 78.5067 319.872 77.4827 320.64 76.544C322.347 74.5813 323.883 72.576 325.248 70.528C325.163 70.1867 325.461 69.632 326.144 68.864C326.827 68.0107 327.253 67.4133 327.424 67.072C327.339 66.6453 327.467 65.792 327.808 64.512C328.149 63.1467 328.533 61.7813 328.96 60.416C329.387 58.9653 329.643 57.8987 329.728 57.216C329.557 57.3013 329.515 57.0453 329.6 56.448C329.771 55.7653 329.941 54.9973 330.112 54.144C330.368 53.2907 330.496 52.736 330.496 52.48L331.136 46.72C331.221 46.2933 331.264 45.952 331.264 45.696C331.264 45.3547 331.264 45.0987 331.264 44.928C331.264 44.416 331.221 43.9893 331.136 43.648C331.136 43.2213 331.093 42.624 331.008 41.856C331.008 41.1733 331.051 40.4907 331.136 39.808C331.221 39.04 331.264 38.3147 331.264 37.632C331.264 36.9493 331.221 36.48 331.136 36.224C331.136 35.8827 331.136 35.6267 331.136 35.456C331.221 35.2853 331.264 35.1573 331.264 35.072C331.264 34.9013 331.093 34.432 330.752 33.664C330.581 33.664 330.496 33.536 330.496 33.28C330.496 32.9387 330.581 32.5973 330.752 32.256C330.923 31.9147 331.093 31.8293 331.264 32C331.605 32.256 331.947 32.9813 332.288 34.176C332.629 35.3707 332.928 36.608 333.184 37.888C333.525 39.168 333.696 40.1493 333.696 40.832C333.696 41.088 333.696 41.344 333.696 41.6C333.696 41.856 333.739 42.112 333.824 42.368C333.909 42.88 333.995 43.648 334.08 44.672C334.251 45.6107 334.336 46.336 334.336 46.848V47.744C334.336 48.0853 334.336 48.512 334.336 49.024C334.336 49.4507 334.293 49.92 334.208 50.432C334.123 51.5413 333.995 52.5653 333.824 53.504C333.739 54.4427 333.696 55.296 333.696 56.064C333.696 56.7467 333.781 57.344 333.952 57.856C334.208 57.1733 334.549 56.576 334.976 56.064C335.488 55.4667 336 54.9547 336.512 54.528C336.683 54.6133 336.768 54.656 336.768 54.656C336.768 54.656 336.939 54.4 337.28 53.888L338.944 52.352C339.029 52.2667 339.157 52.096 339.328 51.84C339.499 51.4987 339.669 51.3707 339.84 51.456L340.48 50.432L342.784 49.024C343.04 48.6827 343.339 48.256 343.68 47.744C344.107 47.232 344.491 46.8053 344.832 46.464C346.112 45.2693 347.477 44.16 348.928 43.136C350.379 42.112 351.872 41.088 353.408 40.064C353.92 39.7227 354.389 39.5093 354.816 39.424C355.328 39.2533 355.797 38.9973 356.224 38.656C356.309 38.5707 356.437 38.4853 356.608 38.4C356.779 38.2293 356.907 38.2293 356.992 38.4L358.272 37.632L358.4 37.76C358.571 37.76 359.253 37.4187 360.448 36.736L361.344 36.224L361.472 36.352L363.392 35.456V35.584C364.16 35.584 364.672 35.4987 364.928 35.328L365.056 35.072C365.568 34.6453 366.165 34.3893 366.848 34.304C367.616 34.2187 368.299 34.048 368.896 33.792L369.152 34.048L371.456 33.536C372.139 33.6213 372.693 33.6213 373.12 33.536C373.632 33.3653 374.144 33.28 374.656 33.28C374.827 33.28 374.997 33.28 375.168 33.28C375.424 33.28 375.723 33.3653 376.064 33.536C376.235 33.3653 376.491 33.28 376.832 33.28C377.429 33.28 378.112 33.408 378.88 33.664C379.733 33.8347 380.288 33.9627 380.544 34.048L382.08 34.432C383.957 35.456 385.536 36.7787 386.816 38.4C387.243 39.0827 387.669 39.8933 388.096 40.832C388.608 41.7707 388.907 42.5813 388.992 43.264L388.864 44.288C388.864 44.544 388.864 44.8 388.864 45.056C388.949 45.312 388.992 45.568 388.992 45.824C388.992 47.616 388.651 49.4507 387.968 51.328C387.285 53.12 386.432 54.784 385.408 56.32C384.128 58.1973 382.72 59.904 381.184 61.44C379.733 62.8907 378.368 64.3413 377.088 65.792C376.832 65.7067 376.235 66.176 375.296 67.2C374.357 68.224 373.675 68.864 373.248 69.12C373.248 68.9493 373.205 68.9493 373.12 69.12C373.12 69.2907 373.12 69.4187 373.12 69.504L370.944 70.784C370.944 70.9547 370.432 71.3387 369.408 71.936C368.469 72.448 367.915 72.7467 367.744 72.832C367.403 73.0027 367.104 73.216 366.848 73.472C366.592 73.728 366.251 73.9413 365.824 74.112H365.568L363.008 75.392C363.008 75.2213 362.965 75.136 362.88 75.136C362.795 75.136 362.624 75.264 362.368 75.52C362.112 75.776 361.899 75.8613 361.728 75.776L359.936 76.032C359.851 76.032 359.637 76.16 359.296 76.416C359.04 76.672 358.869 76.7147 358.784 76.544L354.432 78.592C353.579 78.7627 352.683 78.848 351.744 78.848C350.891 78.7627 349.995 78.72 349.056 78.72C349.056 78.8053 348.971 78.848 348.8 78.848C348.629 78.7627 348.544 78.6773 348.544 78.592C348.032 78.848 346.923 78.976 345.216 78.976C343.083 78.976 341.504 78.8053 340.48 78.464C340.48 78.5493 340.395 78.592 340.224 78.592C340.139 78.592 339.968 78.5493 339.712 78.464C339.541 78.2933 339.371 78.208 339.2 78.208C338.688 78.1227 337.963 77.7387 337.024 77.056C336.171 76.3733 335.403 75.8613 334.72 75.52C334.635 75.3493 334.421 75.2213 334.08 75.136C333.824 75.0507 333.653 74.9653 333.568 74.88C333.397 74.5387 333.312 74.368 333.312 74.368C333.312 73.9413 333.739 73.728 334.592 73.728C335.445 73.6427 335.957 73.6427 336.128 73.728C337.237 74.1547 338.005 74.368 338.432 74.368C338.773 74.368 339.2 74.368 339.712 74.368C340.224 74.2827 341.163 74.24 342.528 74.24C344.491 74.24 346.496 74.1547 348.544 73.984C350.677 73.8133 352.64 73.3013 354.432 72.448H354.56C354.731 72.448 354.901 72.4053 355.072 72.32C355.328 72.1493 355.499 72.1493 355.584 72.32L356.864 71.168C356.949 71.2533 357.077 71.2533 357.248 71.168C357.419 71.0827 357.547 71.04 357.632 71.04L359.168 70.784C359.168 70.6133 359.296 70.4 359.552 70.144C359.893 69.888 360.107 69.8453 360.192 70.016L361.344 69.632H361.6L362.752 68.736H362.88C363.221 68.736 363.563 68.608 363.904 68.352C364.245 68.0107 364.501 67.7973 364.672 67.712C364.672 67.6267 364.8 67.584 365.056 67.584C365.397 67.4133 365.867 67.0293 366.464 66.432C367.061 65.7493 367.445 65.5787 367.616 65.92L368.512 65.28H368.64C368.896 65.1947 369.067 65.0667 369.152 64.896C369.237 64.64 369.451 64.5547 369.792 64.64C369.963 64.384 370.304 64.0427 370.816 63.616C371.413 63.104 371.712 62.6773 371.712 62.336C372.565 61.6533 373.461 61.0987 374.4 60.672C375.339 60.16 375.979 59.3493 376.32 58.24C376.405 58.24 376.747 57.984 377.344 57.472C377.941 56.8747 378.539 56.192 379.136 55.424C379.819 54.656 380.331 54.0587 380.672 53.632C380.757 53.5467 380.928 53.5467 381.184 53.632C381.525 53.632 381.867 53.5893 382.208 53.504C382.549 53.504 382.891 53.376 383.232 53.12C383.573 52.864 383.531 52.608 383.104 52.352C382.677 52.096 382.379 51.968 382.208 51.968C382.037 51.8827 381.995 51.6267 382.08 51.2C382.165 50.6027 382.336 50.048 382.592 49.536C382.848 48.9387 383.104 48.384 383.36 47.872L384.128 46.208C384.299 45.44 384.341 44.9707 384.256 44.8C384.256 44.6293 384.256 44.16 384.256 43.392C384.256 40.4907 383.445 38.528 381.824 37.504C380.288 36.3947 378.24 35.4133 375.68 34.56C375.595 34.6453 375.467 34.688 375.296 34.688C375.125 34.6027 374.955 34.56 374.784 34.56C374.443 34.4747 373.675 34.5173 372.48 34.688C371.371 34.7733 370.731 34.7733 370.56 34.688C369.963 35.0293 369.365 35.2 368.768 35.2C368.256 35.1147 367.659 35.2427 366.976 35.584C366.891 35.4987 366.293 35.712 365.184 36.224C364.075 36.6507 363.392 37.0347 363.136 37.376C362.709 37.4613 362.155 37.6747 361.472 38.016C360.875 38.3573 360.491 38.4853 360.32 38.4L359.68 39.168C358.997 39.2533 358.187 39.5947 357.248 40.192C356.309 40.704 355.797 40.8747 355.712 40.704L354.56 41.6C354.645 41.6853 354.688 41.7707 354.688 41.856C354.688 42.1973 354.432 42.4107 353.92 42.496C353.408 42.5813 353.109 42.624 353.024 42.624L352.896 43.008L351.744 43.776L351.36 44.16C351.275 44.2453 351.147 44.288 350.976 44.288C350.805 44.2027 350.677 44.2453 350.592 44.416C350.251 44.7573 349.824 45.2267 349.312 45.824C348.8 46.4213 348.373 46.8053 348.032 46.976C347.179 47.3173 346.325 47.9573 345.472 48.896C344.619 49.7493 343.851 50.5173 343.168 51.2C343.083 51.2853 342.741 51.5413 342.144 51.968C341.547 52.3947 341.163 52.5653 340.992 52.48C340.736 52.8213 340.352 53.376 339.84 54.144C339.328 54.912 338.859 55.3813 338.432 55.552L337.792 56.96C337.195 57.216 336.725 57.5573 336.384 57.984C336.043 58.4107 335.616 58.7093 335.104 58.88C334.933 59.7333 334.507 60.5013 333.824 61.184C333.227 61.8667 332.715 62.592 332.288 63.36C332.459 64.2133 332.544 65.1947 332.544 66.304C332.544 67.328 332.459 68.352 332.288 69.376C332.203 70.4 331.947 71.2533 331.52 71.936V72.064C331.52 72.4053 331.349 72.7893 331.008 73.216C330.667 73.6427 330.539 74.24 330.624 75.008C330.283 75.264 329.941 75.904 329.6 76.928C329.344 77.952 329.088 78.72 328.832 79.232C328.747 79.4027 328.491 79.7013 328.064 80.128C327.723 80.4693 327.637 80.7253 327.808 80.896C327.04 81.8347 326.528 82.944 326.272 84.224C326.016 85.4187 325.504 86.4853 324.736 87.424L324.48 87.168C324.395 87.5093 324.309 87.808 324.224 88.064C324.139 88.32 323.968 88.6187 323.712 88.96C323.627 89.1307 323.328 89.6427 322.816 90.496C322.304 91.264 321.792 92.032 321.28 92.8C320.768 93.568 320.469 93.952 320.384 93.952L319.744 95.232C319.488 95.232 319.189 95.36 318.848 95.616C318.592 95.872 318.379 96.0853 318.208 96.256C318.293 96.5973 318.08 97.024 317.568 97.536C317.056 98.1333 316.715 98.2613 316.544 97.92C315.776 98.688 315.136 99.4987 314.624 100.352C314.112 101.205 313.301 101.973 312.192 102.656C311.936 102.741 311.253 103.04 310.144 103.552C309.035 104.064 308.48 104.405 308.48 104.576L307.328 105.216C307.243 105.131 306.987 105.259 306.56 105.6C306.219 106.027 305.877 106.027 305.536 105.6C305.28 105.685 305.024 105.728 304.768 105.728C304.512 105.813 304.256 105.856 304 105.856ZM306.176 100.992C306.432 100.992 306.731 100.821 307.072 100.48H307.2C307.456 100.48 307.755 100.267 308.096 99.84C308.437 99.4133 308.651 99.1147 308.736 98.944C309.163 98.7733 309.504 98.56 309.76 98.304C310.101 98.048 310.357 97.792 310.528 97.536L313.856 94.336C315.136 93.056 316.16 91.8187 316.928 90.624C317.696 89.4293 318.464 88.1067 319.232 86.656C319.403 86.4 319.744 85.76 320.256 84.736C320.853 83.712 321.28 83.2 321.536 83.2C322.475 81.4933 323.157 79.872 323.584 78.336C324.096 76.7147 324.736 75.008 325.504 73.216L325.12 72.704C324.949 72.96 324.651 73.3013 324.224 73.728C323.797 74.1547 323.627 74.5813 323.712 75.008C323.541 75.0933 323.029 75.7333 322.176 76.928C321.408 78.0373 320.469 79.4027 319.36 81.024C318.336 82.56 317.269 84.1387 316.16 85.76C315.136 87.3813 314.24 88.7893 313.472 89.984C312.789 91.1787 312.405 91.8613 312.32 92.032C311.979 92.288 311.68 92.6293 311.424 93.056C311.168 93.4827 310.955 93.9093 310.784 94.336L310.656 94.208C310.144 94.8053 309.376 95.7867 308.352 97.152C307.413 98.5173 306.645 99.4133 306.048 99.84C305.963 100.096 305.92 100.352 305.92 100.608C305.92 100.864 306.005 100.992 306.176 100.992Z" fill="#D9D9D9"/>
<path d="M385.43 97.152C383.553 97.152 381.889 96.64 380.438 95.616C379.073 94.5067 378.39 92.6293 378.39 89.984C378.39 89.0453 378.561 87.7227 378.902 86.016C379.243 84.3093 379.798 82.5173 380.566 80.64C380.993 79.616 381.462 78.6347 381.974 77.696C382.571 76.7573 383.126 75.8613 383.638 75.008C383.723 74.9227 383.979 75.008 384.406 75.264C384.918 75.52 385.217 75.6053 385.302 75.52C385.387 75.3493 385.259 75.1787 384.918 75.008C384.662 74.752 384.577 74.5813 384.662 74.496C384.833 74.3253 384.961 74.24 385.046 74.24C385.217 74.1547 385.345 74.0267 385.43 73.856C385.515 73.6853 385.558 73.5147 385.558 73.344C385.558 73.088 385.43 72.8747 385.174 72.704C385.003 72.5333 385.089 72.2773 385.43 71.936C385.857 71.3387 386.326 70.784 386.838 70.272C387.435 69.6747 387.947 69.1627 388.374 68.736C388.545 68.5653 388.758 68.3093 389.014 67.968C389.27 67.5413 389.441 67.2853 389.526 67.2L389.782 66.944C389.867 66.8587 389.953 66.7733 390.038 66.688C390.038 66.6027 390.038 66.56 390.038 66.56C390.123 66.56 390.166 66.5173 390.166 66.432C390.166 66.176 389.91 65.92 389.398 65.664C388.886 65.408 388.63 65.2373 388.63 65.152C388.63 65.0667 388.587 64.9813 388.502 64.896C388.417 64.8107 388.331 64.6827 388.246 64.512C388.331 64.512 388.417 64.4267 388.502 64.256C388.673 64 388.801 63.872 388.886 63.872C388.971 63.872 389.142 63.9573 389.398 64.128C389.654 64.2133 389.825 64.256 389.91 64.256C389.995 64.256 390.038 64.2133 390.038 64.128C390.123 64.0427 390.209 64 390.294 64C390.465 64 390.849 64.128 391.446 64.384C392.043 64.5547 392.385 64.64 392.47 64.64C392.555 64.64 392.811 64.4267 393.238 64C393.665 63.5733 393.921 63.3173 394.006 63.232C394.177 63.0613 394.305 62.8907 394.39 62.72C394.475 62.464 394.689 62.1653 395.03 61.824H395.158C395.243 61.7387 395.286 61.6533 395.286 61.568C395.286 61.4827 395.286 61.44 395.286 61.44C395.457 61.2693 395.585 61.1413 395.67 61.056C395.841 60.8853 395.969 60.7573 396.054 60.672C396.139 60.5867 396.182 60.544 396.182 60.544C396.267 60.544 396.31 60.544 396.31 60.544C396.395 60.3733 396.481 60.2453 396.566 60.16C396.737 60.0747 396.865 59.9893 396.95 59.904L397.206 59.392C397.377 59.2213 397.974 58.8373 398.998 58.24C400.022 57.6427 400.79 57.344 401.302 57.344H401.942C401.942 57.344 401.942 57.3867 401.942 57.472C401.942 57.472 401.985 57.472 402.07 57.472C402.155 57.472 402.241 57.472 402.326 57.472C402.411 57.3867 402.497 57.344 402.582 57.344C402.582 57.344 402.71 57.472 402.966 57.728C403.051 57.8133 403.137 57.856 403.222 57.856C403.307 57.7707 403.393 57.728 403.478 57.728C403.563 57.8133 403.606 57.8987 403.606 57.984C403.606 58.0693 403.649 58.112 403.734 58.112C403.905 58.112 403.947 58.112 403.862 58.112C403.862 58.0267 403.905 57.984 403.99 57.984C404.075 57.984 404.118 58.0693 404.118 58.24C404.118 58.4107 404.161 58.5813 404.246 58.752C404.161 59.008 404.075 59.3067 403.99 59.648C403.99 59.904 403.947 60.1173 403.862 60.288C403.094 61.312 402.497 61.824 402.07 61.824C402.07 61.9093 401.942 62.08 401.686 62.336C401.43 62.336 401.131 62.4213 400.79 62.592C400.449 62.7627 400.107 62.9333 399.766 63.104V63.488C399.766 63.8293 399.638 64 399.382 64C399.211 63.9147 399.041 64.0427 398.87 64.384V64.512C399.041 64.768 399.339 64.896 399.766 64.896L400.662 65.024C400.833 65.024 400.918 64.9813 400.918 64.896C401.003 64.8107 401.089 64.768 401.174 64.768C401.259 64.768 401.302 64.8107 401.302 64.896C401.302 64.896 401.345 64.896 401.43 64.896C401.601 64.896 401.729 64.8533 401.814 64.768C401.899 64.6827 401.985 64.64 402.07 64.64L403.222 64.768C402.966 64.3413 402.838 64 402.838 63.744C402.838 63.3173 403.222 63.0613 403.99 62.976C405.185 62.976 406.209 63.4027 407.062 64.256C407.233 64.1707 407.446 64.1707 407.702 64.256C407.958 64.3413 408.214 64.3413 408.47 64.256L409.11 63.872L409.238 64C409.579 63.8293 409.793 63.744 409.878 63.744C410.049 63.744 410.091 63.7867 410.006 63.872C410.006 63.872 410.049 63.872 410.134 63.872C410.134 63.872 410.219 63.7867 410.39 63.616C410.475 63.616 410.561 63.6587 410.646 63.744C410.817 63.744 410.945 63.7013 411.03 63.616L411.414 63.232H412.95L413.078 63.104C413.249 63.0187 413.462 62.9333 413.718 62.848C414.059 62.6773 414.358 62.592 414.614 62.592C414.614 62.5067 414.699 62.464 414.87 62.464C415.041 62.3787 415.169 62.336 415.254 62.336H415.51C415.937 62.336 416.15 62.464 416.15 62.72C416.15 62.976 416.022 63.1893 415.766 63.36C415.681 63.4453 415.553 63.488 415.382 63.488C415.211 63.4027 415.041 63.4027 414.87 63.488C414.529 63.8293 414.273 64 414.102 64C414.017 64 413.974 64 413.974 64C413.974 63.9147 413.931 63.872 413.846 63.872C413.761 63.872 413.59 64 413.334 64.256L412.438 64.384H412.31C412.139 64.384 412.054 64.4693 412.054 64.64C411.713 64.64 411.371 64.6827 411.03 64.768C410.689 64.768 410.347 64.8107 410.006 64.896L409.878 65.024C409.793 65.024 409.707 65.0667 409.622 65.152C409.537 65.152 409.409 65.152 409.238 65.152C409.067 65.2373 408.598 65.28 407.83 65.28C408.342 65.9627 408.683 66.6027 408.854 67.2C409.025 67.6267 409.153 68.3093 409.238 69.248C409.409 70.1013 409.451 70.7413 409.366 71.168C409.366 71.424 409.281 71.5093 409.11 71.424C408.939 71.2533 408.854 71.2533 408.854 71.424C408.854 71.68 408.939 71.8507 409.11 71.936C409.366 71.936 409.494 72.1493 409.494 72.576C409.494 72.832 409.451 73.1733 409.366 73.6C409.281 73.9413 409.195 74.3253 409.11 74.752C409.025 75.264 408.897 75.8187 408.726 76.416C408.641 76.928 408.427 77.44 408.086 77.952L407.702 78.592V79.36C407.702 80.0427 407.489 80.512 407.062 80.768C406.721 81.024 406.465 81.3227 406.294 81.664C406.123 82.176 405.995 82.5173 405.91 82.688C405.91 82.8587 405.739 83.2 405.398 83.712C404.289 85.4187 402.966 87.04 401.43 88.576C399.894 90.112 398.401 91.52 396.95 92.8C395.67 93.9093 393.921 94.9333 391.702 95.872C389.569 96.7253 387.478 97.152 385.43 97.152ZM386.71 94.848C386.966 94.848 387.478 94.8053 388.246 94.72C389.014 94.5493 389.825 94.1653 390.678 93.568C390.849 93.4827 391.019 93.5253 391.19 93.696C391.361 93.8667 391.531 93.9093 391.702 93.824C392.129 93.6533 392.299 93.5253 392.214 93.44C392.129 93.3547 392.257 93.2693 392.598 93.184H392.726C393.238 93.184 393.451 93.1413 393.366 93.056C393.366 92.8853 393.409 92.672 393.494 92.416C393.494 92.16 393.622 91.9467 393.878 91.776C394.134 91.6053 394.347 91.4773 394.518 91.392C395.457 90.624 396.609 89.344 397.974 87.552C399.339 85.6747 400.705 83.7973 402.07 81.92C402.155 81.7493 402.283 81.7067 402.454 81.792C402.625 81.8773 402.753 81.8773 402.838 81.792C402.923 81.7067 402.966 81.4507 402.966 81.024C402.966 80.768 403.094 80.384 403.35 79.872C403.606 79.2747 403.862 78.8053 404.118 78.464C404.203 78.208 404.374 77.7387 404.63 77.056C404.886 76.288 405.099 75.6053 405.27 75.008C405.526 74.3253 405.569 73.984 405.398 73.984C405.227 73.8987 405.142 73.8133 405.142 73.728C405.142 73.5573 405.398 73.3867 405.91 73.216C406.422 73.0453 406.379 72.9173 405.782 72.832C405.611 72.7467 405.654 72.576 405.91 72.32C406.166 72.064 406.038 71.8933 405.526 71.808C405.099 71.7227 404.929 71.5947 405.014 71.424C405.185 71.2533 405.313 71.1253 405.398 71.04C405.654 70.784 405.782 70.528 405.782 70.272C405.782 69.504 405.569 68.736 405.142 67.968C404.801 67.2 404.417 66.5173 403.99 65.92C403.478 66.2613 403.222 66.432 403.222 66.432C403.137 66.432 403.094 66.432 403.094 66.432C403.094 66.3467 403.009 66.304 402.838 66.304C402.753 66.304 402.71 66.304 402.71 66.304C402.71 66.2187 402.667 66.176 402.582 66.176C402.497 66.176 402.411 66.2187 402.326 66.304C402.241 66.3893 402.198 66.432 402.198 66.432C402.113 66.5173 401.942 66.56 401.686 66.56C401.515 66.56 401.387 66.56 401.302 66.56C401.217 66.56 401.131 66.5173 401.046 66.432C401.046 66.3467 401.003 66.304 400.918 66.304C400.833 66.304 400.705 66.3893 400.534 66.56C400.449 66.7307 400.321 66.816 400.15 66.816C400.065 66.816 400.022 66.7733 400.022 66.688C400.022 66.6027 399.937 66.56 399.766 66.56C399.681 66.56 399.595 66.6027 399.51 66.688C399.51 66.7733 399.467 66.816 399.382 66.816C399.297 66.816 399.126 66.688 398.87 66.432H398.742C398.742 66.944 398.614 67.2 398.358 67.2C398.273 67.2 398.145 67.1147 397.974 66.944C397.035 67.5413 395.457 68.9493 393.238 71.168C391.019 73.3013 389.057 75.776 387.35 78.592C387.009 79.2747 386.582 80.0853 386.07 81.024C385.643 81.9627 385.259 83.0293 384.918 84.224C384.833 84.736 384.577 85.12 384.15 85.376C383.809 85.632 383.553 85.9307 383.382 86.272C383.297 86.6133 383.339 86.8267 383.51 86.912C383.681 86.9973 383.809 87.1253 383.894 87.296C383.894 87.6373 383.809 88.1067 383.638 88.704C383.553 89.3013 383.51 89.856 383.51 90.368C383.51 91.9893 383.809 93.1413 384.406 93.824C385.089 94.5067 385.857 94.848 386.71 94.848Z" fill="#D9D9D9"/>
<path d="M433.346 56.064C433.09 56.064 432.834 55.9787 432.578 55.808C432.407 55.6373 432.151 55.424 431.81 55.168C431.639 55.0827 431.426 54.9973 431.17 54.912C430.999 54.7413 430.914 54.4853 430.914 54.144C430.829 54.0587 430.658 54.016 430.402 54.016C429.975 54.016 429.762 53.7173 429.762 53.12C429.762 52.4373 430.103 51.968 430.786 51.712L431.426 51.2V51.328L431.938 50.688H432.194C432.706 50.688 433.047 50.432 433.218 49.92C433.474 49.408 433.986 49.0667 434.754 48.896C435.266 48.7253 435.693 48.768 436.034 49.024C436.375 49.28 436.802 49.408 437.314 49.408C437.826 49.408 438.381 49.2373 438.978 48.896L440.898 48.512C441.154 48.512 441.282 48.5973 441.282 48.768C441.282 48.9387 441.026 49.152 440.514 49.408C440.087 49.664 439.789 49.8773 439.618 50.048L439.49 50.176L439.362 50.432L438.85 51.072C438.338 51.6693 437.741 52.3947 437.058 53.248C436.461 54.016 435.821 54.656 435.138 55.168C434.37 55.7653 433.773 56.064 433.346 56.064ZM413.89 96.384C413.378 96.384 413.122 96.0853 413.122 95.488C413.122 95.0613 413.25 94.5493 413.506 93.952C414.189 92.5013 414.957 90.4533 415.81 87.808C416.749 85.1627 417.901 82.9013 419.266 81.024C420.205 79.1467 421.058 77.312 421.826 75.52C422.679 73.6427 423.49 71.7653 424.258 69.888C424.258 69.888 424.173 69.8453 424.002 69.76C423.917 69.5893 423.874 69.4187 423.874 69.248C423.362 68.9067 422.807 68.4373 422.21 67.84C421.698 67.1573 421.655 66.4747 422.082 65.792C422.253 65.6213 422.381 65.536 422.466 65.536C422.551 65.536 422.594 65.536 422.594 65.536C422.594 65.4507 422.551 65.408 422.466 65.408C422.466 65.3227 422.466 65.28 422.466 65.28C422.466 64.9387 422.637 64.7253 422.978 64.64C423.319 64.5547 423.49 64.4267 423.49 64.256C423.661 63.0613 424.685 62.1653 426.562 61.568C428.439 60.9707 430.103 60.672 431.554 60.672C433.005 60.672 433.73 60.8853 433.73 61.312C433.73 61.4827 433.474 61.7813 432.962 62.208C432.706 62.3787 432.279 62.7627 431.682 63.36C431.085 63.9573 430.53 64.6827 430.018 65.536L428.994 67.072C428.909 67.2427 428.781 67.456 428.61 67.712C428.525 67.8827 428.397 68.0533 428.226 68.224C426.861 70.6987 425.751 72.7893 424.898 74.496C424.045 76.2027 423.021 78.3787 421.826 81.024C421.655 81.536 421.57 81.8773 421.57 82.048C421.57 82.6453 421.911 82.944 422.594 82.944C423.106 82.944 423.618 82.816 424.13 82.56L425.41 82.048C427.458 80.1707 429.591 78.592 431.81 77.312C431.895 77.312 431.938 77.312 431.938 77.312C432.023 77.2267 432.109 77.184 432.194 77.184C432.45 77.184 432.621 77.3547 432.706 77.696C432.791 77.952 432.706 78.1653 432.45 78.336C429.975 79.7013 427.671 81.4507 425.538 83.584C425.453 83.7547 425.367 83.9253 425.282 84.096C425.197 84.2667 425.069 84.4373 424.898 84.608C424.727 84.7787 424.471 85.0773 424.13 85.504C423.874 85.9307 423.746 86.1867 423.746 86.272C423.661 86.528 423.533 86.6133 423.362 86.528C423.277 86.4427 423.021 86.5707 422.594 86.912C422.509 86.9973 422.423 87.168 422.338 87.424C422.338 87.68 422.295 87.8933 422.21 88.064C422.125 88.32 421.954 88.5333 421.698 88.704C421.527 88.7893 421.442 88.8747 421.442 88.96C421.357 89.3013 421.186 89.5147 420.93 89.6C420.759 89.6 420.589 89.6853 420.418 89.856C420.333 89.9413 420.333 90.0693 420.418 90.24C420.503 90.4107 420.461 90.5813 420.29 90.752C420.205 91.008 420.119 91.136 420.034 91.136C419.949 91.0507 419.821 91.0933 419.65 91.264C419.309 91.6053 419.053 91.776 418.882 91.776C418.37 91.9467 418.157 92.0747 418.242 92.16C418.413 92.2453 418.541 92.3307 418.626 92.416C418.797 92.416 418.669 92.544 418.242 92.8C418.071 92.8853 417.901 93.1413 417.73 93.568C417.559 93.9093 417.389 94.1653 417.218 94.336C416.962 94.5067 416.706 94.6347 416.45 94.72C416.279 94.8053 416.066 94.976 415.81 95.232C415.042 96 414.402 96.384 413.89 96.384Z" fill="#D9D9D9"/>
<path d="M435.009 96.384C434.497 96.384 434.241 96.0853 434.241 95.488C434.241 95.0613 434.369 94.5493 434.625 93.952C435.308 92.5013 436.118 90.4533 437.057 87.808C437.996 85.1627 439.148 82.9013 440.513 81.024L445.505 69.888C445.505 69.888 445.42 69.8453 445.249 69.76C445.078 69.5893 444.993 69.4187 444.993 69.248C444.481 68.9067 443.926 68.4373 443.329 67.84C442.817 67.1573 442.774 66.4747 443.201 65.792C443.372 65.6213 443.5 65.536 443.585 65.536C443.67 65.536 443.713 65.536 443.713 65.536V65.28C443.713 64.9387 443.841 64.7253 444.097 64.64C444.438 64.5547 444.652 64.4267 444.737 64.256C444.908 63.0613 445.889 62.1653 447.681 61.568C449.558 60.9707 451.222 60.672 452.673 60.672C454.124 60.672 454.849 60.8853 454.849 61.312C454.849 61.568 454.593 61.8667 454.081 62.208C453.91 62.3787 453.484 62.7627 452.801 63.36C452.204 63.9573 451.649 64.6827 451.137 65.536L450.241 67.072L449.345 68.224C447.98 70.6987 446.87 72.7893 446.017 74.496C445.164 76.2027 444.14 78.3787 442.945 81.024C442.689 81.536 442.561 81.9627 442.561 82.304C442.561 82.7307 442.732 82.944 443.073 82.944C443.244 82.944 443.414 82.9013 443.585 82.816C443.841 82.6453 444.097 82.5173 444.353 82.432C445.036 82.0053 445.59 81.6213 446.017 81.28C446.529 80.8533 447.084 80.4267 447.681 80C447.937 79.744 448.15 79.744 448.321 80C448.492 80.1707 448.492 80.4267 448.321 80.768C447.98 81.4507 447.724 81.8773 447.553 82.048C447.468 82.1333 447.34 82.2187 447.169 82.304C446.998 82.3893 446.614 82.7733 446.017 83.456L445.505 84.48C445.334 84.6507 445.121 84.992 444.865 85.504C444.694 85.9307 444.609 86.1867 444.609 86.272C444.609 86.4427 444.524 86.528 444.353 86.528C444.182 86.4427 443.926 86.5707 443.585 86.912C443.5 86.9973 443.457 87.168 443.457 87.424C443.542 87.68 443.5 87.8933 443.329 88.064C443.244 88.32 443.116 88.5333 442.945 88.704C442.774 88.7893 442.689 88.8747 442.689 88.96C442.604 89.3013 442.433 89.5147 442.177 89.6C442.006 89.6 441.836 89.6853 441.665 89.856C441.58 89.856 441.537 89.9413 441.537 90.112C441.537 90.7947 441.452 91.0933 441.281 91.008C441.11 90.9227 440.94 91.008 440.769 91.264C440.598 91.6053 440.385 91.776 440.129 91.776C439.617 91.9467 439.404 92.0747 439.489 92.16C439.574 92.2453 439.702 92.3307 439.873 92.416C440.044 92.416 439.916 92.544 439.489 92.8C439.233 92.8853 439.02 93.1413 438.849 93.568C438.678 93.9093 438.508 94.1653 438.337 94.336C438.166 94.5067 437.953 94.6347 437.697 94.72C437.441 94.8053 437.228 94.976 437.057 95.232C436.289 96 435.606 96.384 435.009 96.384ZM473.153 95.36C472.812 95.36 472.513 95.36 472.257 95.36C472.001 95.2747 471.745 95.1893 471.489 95.104C470.636 94.9333 469.868 94.6773 469.185 94.336C468.588 93.9947 468.076 93.3547 467.649 92.416C467.564 91.9893 467.35 91.4347 467.009 90.752C466.753 90.0693 466.582 89.4293 466.497 88.832C466.412 88.4053 466.369 87.8933 466.369 87.296C466.284 86.8693 466.241 86.3147 466.241 85.632C466.07 84.7787 465.985 84.0107 465.985 83.328C466.07 82.6453 466.113 81.8347 466.113 80.896C466.113 79.9573 466.156 79.2747 466.241 78.848C466.412 78.08 466.497 77.696 466.497 77.696C466.497 77.6107 466.497 77.184 466.497 76.416C466.582 75.392 466.625 74.3253 466.625 73.216C466.625 72.1067 466.668 71.2107 466.753 70.528C467.009 67.968 466.497 66.688 465.217 66.688C464.705 66.688 464.022 66.9013 463.169 67.328C463.084 67.584 462.913 67.7547 462.657 67.84C462.486 67.84 462.23 67.9253 461.889 68.096L461.249 68.48C461.249 68.5653 461.164 68.608 460.993 68.608C460.822 68.5227 460.737 68.5653 460.737 68.736C460.822 69.0773 460.78 69.2907 460.609 69.376C460.524 69.4613 460.396 69.4187 460.225 69.248L458.817 70.272C458.817 70.3573 458.689 70.528 458.433 70.784L458.305 70.912C457.964 71.2533 457.665 71.424 457.409 71.424L457.025 71.808C457.025 71.8933 456.94 72.064 456.769 72.32C456.684 72.4907 456.47 72.5333 456.129 72.448L455.489 73.088C455.148 73.6 454.849 73.8987 454.593 73.984C454.422 74.0693 454.209 74.1547 453.953 74.24L452.929 75.52L452.417 75.648C452.417 75.9893 452.033 76.5013 451.265 77.184C450.582 77.8667 450.113 78.336 449.857 78.592C449.601 78.848 449.345 78.976 449.089 78.976C448.918 78.976 448.833 78.8907 448.833 78.72C448.833 78.6347 449.046 78.2933 449.473 77.696C449.814 77.3547 450.326 76.7147 451.009 75.776C451.777 74.8373 452.204 74.4107 452.289 74.496C452.716 74.0693 453.014 73.6427 453.185 73.216C453.356 72.704 453.654 72.2773 454.081 71.936C454.081 72.0213 454.081 72.1067 454.081 72.192C454.166 72.192 454.209 72.192 454.209 72.192C454.38 72.192 454.593 71.9787 454.849 71.552C455.105 71.04 455.276 70.8267 455.361 70.912L457.537 68.992C457.537 68.9067 457.75 68.736 458.177 68.48C458.518 68.3093 458.732 68.224 458.817 68.224C458.902 68.224 459.116 67.968 459.457 67.456L460.353 66.816C460.438 66.6453 460.524 66.688 460.609 66.944C460.78 67.1147 460.908 67.1573 460.993 67.072L461.377 66.176C461.548 65.92 461.804 65.7067 462.145 65.536C462.572 65.28 462.998 65.024 463.425 64.768C464.449 63.744 465.217 63.232 465.729 63.232H466.241C467.35 62.8053 468.374 62.592 469.313 62.592C470.678 62.592 471.745 63.104 472.513 64.128C472.684 64.384 472.854 64.8533 473.025 65.536C473.196 65.6213 473.238 65.7493 473.153 65.92C473.153 66.0053 473.196 66.1333 473.281 66.304C473.366 66.4747 473.537 66.688 473.793 66.944C474.049 67.1147 474.177 67.328 474.177 67.584V67.84C474.177 68.1813 473.964 68.48 473.537 68.736C473.964 69.0773 474.134 69.2907 474.049 69.376C474.049 69.376 474.006 69.504 473.921 69.76L473.665 71.552C473.58 72.1493 473.452 72.6187 473.281 72.96C473.11 73.216 472.94 73.6853 472.769 74.368C473.11 74.88 473.11 75.2213 472.769 75.392H472.513L472.385 75.904C472.385 76.0747 472.47 76.2453 472.641 76.416L472.257 77.184C472.342 77.0987 472.385 77.0987 472.385 77.184C472.47 77.184 472.513 77.184 472.513 77.184C472.428 77.3547 472.3 77.696 472.129 78.208C471.958 78.6347 471.83 78.976 471.745 79.232C471.66 79.6587 471.489 79.872 471.233 79.872C470.977 79.872 470.892 80.0853 470.977 80.512C471.062 80.5973 471.105 80.896 471.105 81.408C471.19 81.8347 471.148 82.048 470.977 82.048L470.721 83.584V83.968C470.721 84.3947 470.636 84.8213 470.465 85.248C470.38 85.6747 470.294 86.1013 470.209 86.528C470.124 86.9547 470.038 87.424 469.953 87.936C469.953 88.3627 469.953 88.7893 469.953 89.216C469.953 89.5573 469.953 89.9413 469.953 90.368C470.038 90.7093 470.124 91.0507 470.209 91.392C470.209 91.4773 470.337 91.7333 470.593 92.16C470.849 92.5867 470.977 92.8427 470.977 92.928L471.361 93.312C471.532 93.3973 471.788 93.3973 472.129 93.312C472.556 93.2267 472.854 93.2693 473.025 93.44C473.793 93.5253 474.774 93.1413 475.969 92.288C477.249 91.3493 478.401 90.3253 479.425 89.216C479.681 88.96 479.937 88.832 480.193 88.832C480.364 88.832 480.492 88.96 480.577 89.216C480.662 89.472 480.577 89.8133 480.321 90.24C478.956 92.2027 477.676 93.568 476.481 94.336C475.286 95.0187 474.177 95.36 473.153 95.36Z" fill="#D9D9D9"/>
<path d="M487.367 96.384C486.855 96.384 486.599 96.0853 486.599 95.488C486.599 95.0613 486.727 94.5493 486.983 93.952C487.666 92.5013 488.434 90.4533 489.287 87.808C490.226 85.1627 491.378 82.9013 492.743 81.024L499.143 67.84C498.631 67.84 498.119 67.968 497.607 68.224C497.18 68.48 496.967 68.6933 496.967 68.864C496.967 69.2053 496.498 69.5467 495.559 69.888C494.62 70.2293 494.108 70.4427 494.023 70.528C492.743 70.8693 491.548 71.2533 490.439 71.68C489.586 72.6187 488.732 73.5573 487.879 74.496C487.111 75.4347 486.386 76.3733 485.703 77.312C485.618 77.3973 485.532 77.44 485.447 77.44C484.679 78.2933 484.039 78.9333 483.527 79.36C483.015 79.7867 482.46 80.1707 481.863 80.512C481.522 80.768 481.18 80.8533 480.839 80.768C480.412 80.5973 480.37 80.4267 480.711 80.256C481.138 80.0853 481.82 79.488 482.759 78.464C483.698 77.44 484.423 76.672 484.935 76.16C485.362 75.904 485.49 75.904 485.319 76.16C485.234 76.416 485.362 76.3733 485.703 76.032L488.903 71.936L489.031 71.808C488.604 71.552 488.391 70.8693 488.391 69.76C488.391 68.9067 488.562 68.224 488.903 67.712C488.903 67.6267 488.988 67.584 489.159 67.584L491.847 66.816C492.103 66.816 492.274 66.7733 492.359 66.688C492.53 66.5173 492.7 66.304 492.871 66.048C493.127 65.7067 493.426 65.28 493.767 64.768L495.303 62.72L496.327 61.312C496.327 61.056 496.498 60.7573 496.839 60.416C497.266 59.9893 497.607 59.6907 497.863 59.52C498.204 59.008 498.418 58.624 498.503 58.368C498.674 58.0267 498.93 57.6 499.271 57.088C499.271 57.0027 499.399 56.96 499.655 56.96C499.911 56.8747 500.039 56.7893 500.039 56.704C500.124 55.8507 500.252 55.4667 500.423 55.552C500.679 55.552 500.807 55.424 500.807 55.168C500.807 54.912 500.978 54.6987 501.319 54.528L501.959 53.76C501.959 53.6747 502.087 53.504 502.343 53.248V53.12C502.343 52.9493 502.343 52.736 502.343 52.48C502.343 52.224 502.428 51.968 502.599 51.712C502.77 51.5413 502.898 51.456 502.983 51.456C503.068 51.456 503.111 51.456 503.111 51.456C503.111 51.3707 503.068 51.328 502.983 51.328C502.983 51.2427 502.983 51.2 502.983 51.2C502.983 50.8587 503.154 50.6453 503.495 50.56C503.836 50.4747 504.007 50.3467 504.007 50.176C504.178 48.9813 505.202 48.0853 507.079 47.488C508.956 46.8907 510.62 46.592 512.071 46.592C513.522 46.592 514.247 46.8053 514.247 47.232C514.247 47.4027 513.991 47.7013 513.479 48.128C513.223 48.2133 512.796 48.5973 512.199 49.28C511.602 49.8773 511.047 50.6027 510.535 51.456L509.511 52.992C509.426 53.1627 509.298 53.376 509.127 53.632C509.042 53.8027 508.914 53.9733 508.743 54.144C508.146 55.168 507.335 56.6187 506.311 58.496C505.372 60.288 504.348 62.2933 503.239 64.512L506.567 64.128C506.823 64.128 506.908 64.1707 506.823 64.256C506.823 64.3413 506.951 64.3413 507.207 64.256C507.634 64.256 507.932 64.2133 508.103 64.128C508.274 63.9573 508.572 63.8293 508.999 63.744C509.682 63.6587 510.45 63.616 511.303 63.616C512.242 63.5307 512.967 63.488 513.479 63.488C513.82 63.488 514.247 63.488 514.759 63.488C515.271 63.488 515.655 63.5307 515.911 63.616C516.082 63.616 516.124 63.7013 516.039 63.872C516.039 63.9573 516.082 64 516.167 64C516.338 64 516.466 63.9573 516.551 63.872C516.722 63.7867 516.892 63.744 517.063 63.744C517.148 63.6587 517.276 63.6587 517.447 63.744C517.703 63.744 517.874 63.744 517.959 63.744L519.239 64.128C519.751 64.2133 520.007 64.512 520.007 65.024C520.092 65.536 519.879 65.7067 519.367 65.536C519.026 65.3653 518.727 65.28 518.471 65.28H515.271C514.674 65.28 514.119 65.28 513.607 65.28C513.095 65.28 512.583 65.3227 512.071 65.408C511.9 65.4933 511.815 65.408 511.815 65.152C511.9 64.896 511.858 64.768 511.687 64.768C511.602 64.768 511.474 64.896 511.303 65.152C511.132 65.3227 511.004 65.408 510.919 65.408L510.279 65.792C508.914 66.1333 507.463 66.5173 505.927 66.944C504.391 67.2853 502.898 67.6693 501.447 68.096C500.167 70.7413 498.93 73.2587 497.735 75.648C496.626 77.952 495.772 79.744 495.175 81.024C495.004 81.536 494.919 81.8347 494.919 81.92C494.919 82.6027 495.303 82.944 496.071 82.944C496.583 82.944 497.095 82.816 497.607 82.56L498.887 82.048C500.935 80.1707 503.068 78.592 505.287 77.312C505.372 77.312 505.415 77.312 505.415 77.312C505.5 77.2267 505.586 77.184 505.671 77.184C505.927 77.184 506.098 77.3547 506.183 77.696C506.268 77.952 506.183 78.1653 505.927 78.336C503.452 79.7013 501.148 81.4507 499.015 83.584C498.93 83.7547 498.844 83.9253 498.759 84.096C498.674 84.2667 498.546 84.4373 498.375 84.608C498.204 84.7787 497.948 85.0773 497.607 85.504C497.351 85.9307 497.223 86.1867 497.223 86.272C497.138 86.528 497.01 86.6133 496.839 86.528C496.754 86.4427 496.498 86.5707 496.071 86.912C495.986 86.9973 495.9 87.168 495.815 87.424C495.815 87.68 495.772 87.8933 495.687 88.064C495.516 88.32 495.346 88.5333 495.175 88.704C495.004 88.7893 494.919 88.8747 494.919 88.96C494.834 89.3013 494.663 89.5147 494.407 89.6C494.236 89.6 494.066 89.6853 493.895 89.856C493.81 89.856 493.767 89.8987 493.767 89.984C493.767 90.752 493.682 91.0933 493.511 91.008C493.34 90.9227 493.212 91.008 493.127 91.264C492.786 91.6053 492.53 91.776 492.359 91.776C491.847 91.9467 491.634 92.0747 491.719 92.16C491.89 92.2453 492.018 92.3307 492.103 92.416C492.274 92.416 492.146 92.544 491.719 92.8C491.548 92.8853 491.378 93.1413 491.207 93.568C491.036 93.9093 490.866 94.1653 490.695 94.336C490.439 94.5067 490.183 94.6347 489.927 94.72C489.671 94.8053 489.458 94.976 489.287 95.232C488.519 96 487.879 96.384 487.367 96.384ZM494.663 66.304C495.004 66.2187 495.303 66.1333 495.559 66.048C495.9 65.9627 496.242 65.8347 496.583 65.664L500.423 65.024C501.447 62.976 502.343 61.1413 503.111 59.52C503.879 57.8133 504.434 56.576 504.775 55.808C504.775 55.808 504.69 55.7653 504.519 55.68C504.434 55.5093 504.391 55.3387 504.391 55.168C504.22 55.0827 504.007 54.9547 503.751 54.784C503.58 54.6133 503.41 54.4853 503.239 54.4L502.087 55.552L500.679 57.472C500.679 57.5573 500.551 57.6427 500.295 57.728C500.124 57.728 500.039 57.7707 500.039 57.856C500.039 58.112 499.911 58.368 499.655 58.624C499.484 58.88 499.314 58.9653 499.143 58.88L498.631 60.16C498.631 60.416 498.503 60.6293 498.247 60.8L497.351 61.952C497.351 62.0373 497.308 62.1227 497.223 62.208C497.223 62.208 497.223 62.2933 497.223 62.464C497.138 62.6347 497.01 62.848 496.839 63.104C496.668 63.36 496.455 63.616 496.199 63.872C496.114 63.872 496.071 63.9147 496.071 64C496.071 64 496.028 64 495.943 64L495.559 64.768C495.218 64.9387 495.004 65.024 494.919 65.024L494.791 65.28C494.791 65.792 494.748 66.1333 494.663 66.304Z" fill="#D9D9D9"/>
<path d="M487.765 157.345C482.675 145.099 471.446 141.47 466.467 141.187C466.006 141.187 464.033 140.846 459.829 139.486C453.191 137.785 444.34 130.556 444.34 124.178C444.34 117.8 438.531 112.272 459.829 91.6487C481.127 71.0256 490.531 94.8378 498.275 86.7587C506.02 78.6796 511.552 93.137 517.084 99.9405C522.616 106.744 525.381 125.666 511.552 133.107C497.722 140.549 510.169 177.968 506.85 182.22C503.531 186.472 494.126 172.653 487.765 157.345Z" fill="#940000"/>
</svg>
