<svg width="32" height="32" viewBox="0 0 32 32" fill="none" xmlns="http://www.w3.org/2000/svg">
<path d="M22.5067 3.83999C22.3519 3.68478 22.168 3.56163 21.9655 3.47761C21.763 3.39359 21.5459 3.35034 21.3267 3.35034C21.1075 3.35034 20.8904 3.39359 20.6879 3.47761C20.4855 3.56163 20.3015 3.68478 20.1467 3.83999L8.93338 15.0533C8.80978 15.1767 8.71171 15.3232 8.64481 15.4845C8.5779 15.6458 8.54346 15.8187 8.54346 15.9933C8.54346 16.1679 8.5779 16.3409 8.64481 16.5022C8.71171 16.6635 8.80978 16.81 8.93338 16.9333L20.1467 28.1467C20.8 28.8 21.8534 28.8 22.5067 28.1467C23.16 27.4933 23.16 26.44 22.5067 25.7867L12.72 16L22.52 6.19999C23.16 5.54665 23.16 4.49332 22.5067 3.83999Z" fill="white"/>
</svg>
