<svg width="32" height="32" viewBox="0 0 32 32" fill="none" xmlns="http://www.w3.org/2000/svg">
<path d="M28 8.00001H23.7333L21.3333 5.33334H13.3333V8.00001H20.1333L22.6667 10.6667H28V26.6667H6.66667V14.6667H4V26.6667C4 28.1333 5.2 29.3333 6.66667 29.3333H28C29.4667 29.3333 30.6667 28.1333 30.6667 26.6667V10.6667C30.6667 9.20001 29.4667 8.00001 28 8.00001ZM10.6667 18.6667C10.6667 24.6 17.8533 27.5867 22.0533 23.3867C26.2533 19.1867 23.2667 12 17.3333 12C13.6533 12 10.6667 14.9867 10.6667 18.6667ZM17.3333 14.6667C18.3847 14.6969 19.3846 15.128 20.1283 15.8717C20.872 16.6154 21.3031 17.6154 21.3333 18.6667C21.3031 19.718 20.872 20.718 20.1283 21.4617C19.3846 22.2054 18.3847 22.6365 17.3333 22.6667C16.282 22.6365 15.2821 22.2054 14.5384 21.4617C13.7947 20.718 13.3635 19.718 13.3333 18.6667C13.3635 17.6154 13.7947 16.6154 14.5384 15.8717C15.2821 15.128 16.282 14.6969 17.3333 14.6667ZM6.66667 8.00001H10.6667V5.33334H6.66667V1.33334H4V5.33334H0V8.00001H4V12H6.66667" fill="white"/>
</svg>
